<?xml version="1.0" encoding="utf-8"?>
<!-- Generator: Adobe Illustrator 16.0.4, SVG Export Plug-In . SVG Version: 6.00 Build 0)  -->
<!DOCTYPE svg PUBLIC "-//W3C//DTD SVG 1.1//EN" "http://www.w3.org/Graphics/SVG/1.1/DTD/svg11.dtd">
<svg version="1.1" id="supported__x5F__black_x26_orange"
	 xmlns="http://www.w3.org/2000/svg" xmlns:xlink="http://www.w3.org/1999/xlink" x="0px" y="0px" width="425.197px"
	 height="209.764px" viewBox="0 0 425.197 209.764" enable-background="new 0 0 425.197 209.764" xml:space="preserve">
<g>
</g>
<g>
</g>
<g>
</g>
<g>
</g>
<g>
	<g>
		<circle fill="#E95420" cx="345.869" cy="71.951" r="16.966"/>
		<path fill="#FFFFFF" d="M335.287,69.912c-1.127,0-2.036,0.912-2.036,2.039c0,1.124,0.909,2.037,2.036,2.037
			c1.128,0,2.039-0.913,2.039-2.037C337.326,70.824,336.415,69.912,335.287,69.912z M349.842,79.178
			c-0.976,0.56-1.308,1.807-0.747,2.78c0.563,0.976,1.809,1.309,2.784,0.748c0.975-0.563,1.31-1.809,0.747-2.784
			C352.062,78.948,350.815,78.613,349.842,79.178z M339.717,71.951c0-2.016,0.998-3.796,2.529-4.873l-1.488-2.497
			c-1.784,1.191-3.112,3.013-3.664,5.148c0.646,0.525,1.055,1.324,1.055,2.222c0,0.894-0.408,1.692-1.055,2.219
			c0.552,2.134,1.88,3.955,3.664,5.147l1.488-2.496C340.715,75.745,339.717,73.965,339.717,71.951z M345.669,65.995
			c3.112,0,5.663,2.385,5.931,5.429l2.905-0.046c-0.144-2.244-1.124-4.26-2.631-5.742c-0.776,0.291-1.672,0.249-2.445-0.2
			c-0.773-0.446-1.26-1.199-1.394-2.02c-0.754-0.207-1.547-0.321-2.366-0.321c-1.408,0-2.741,0.332-3.922,0.917l1.415,2.537
			C343.924,66.194,344.774,65.995,345.669,65.995z M345.669,77.903c-0.895,0-1.745-0.198-2.507-0.554l-1.415,2.538
			c1.181,0.587,2.514,0.916,3.922,0.916c0.819,0,1.612-0.111,2.366-0.321c0.134-0.82,0.62-1.572,1.394-2.021
			c0.775-0.448,1.669-0.49,2.445-0.196c1.507-1.483,2.487-3.5,2.631-5.746l-2.905-0.041
			C351.332,75.521,348.781,77.903,345.669,77.903z M349.842,64.723c0.974,0.562,2.221,0.229,2.782-0.747
			c0.563-0.972,0.229-2.219-0.745-2.781c-0.976-0.563-2.221-0.229-2.784,0.745C348.534,62.914,348.866,64.161,349.842,64.723z"/>
		<g>
			<g>
				<g>
					<path d="M113.313,116.491c-1.725,0.432-4,0.889-6.829,1.374s-6.102,0.727-9.819,0.727c-3.232,0-5.954-0.472-8.163-1.413
						c-2.209-0.942-3.988-2.276-5.334-4.001c-1.347-1.725-2.317-3.759-2.909-6.103c-0.594-2.344-0.889-4.942-0.889-7.798V75.679
						h7.516v21.982c0,5.119,0.809,8.782,2.425,10.991c1.616,2.21,4.336,3.314,8.163,3.314c0.808,0,1.642-0.027,2.505-0.082
						c0.861-0.053,1.669-0.121,2.425-0.201c0.754-0.081,1.441-0.162,2.061-0.242c0.619-0.081,1.063-0.174,1.333-0.283V75.679h7.516
						V116.491z"/>
					<path d="M131.658,77.537c0.916-0.592,2.303-1.212,4.162-1.858s4-0.97,6.425-0.97c3.017,0,5.698,0.539,8.042,1.616
						c2.344,1.078,4.324,2.586,5.94,4.526c1.617,1.939,2.841,4.256,3.677,6.95c0.835,2.694,1.253,5.657,1.253,8.889
						c0,3.395-0.499,6.453-1.496,9.173c-0.998,2.721-2.412,5.024-4.243,6.91c-1.833,1.887-4.041,3.342-6.627,4.365
						c-2.586,1.022-5.496,1.534-8.728,1.534c-3.503,0-6.601-0.242-9.294-0.727c-2.694-0.485-4.903-0.97-6.626-1.455V56.282
						l7.516-1.292V77.537z M131.658,111.157c0.754,0.216,1.818,0.418,3.192,0.605c1.374,0.189,3.084,0.284,5.132,0.284
						c4.041,0,7.273-1.334,9.698-4.001c2.424-2.667,3.637-6.452,3.637-11.355c0-2.154-0.216-4.174-0.646-6.062
						c-0.432-1.885-1.132-3.515-2.102-4.889s-2.223-2.451-3.758-3.233c-1.536-0.78-3.382-1.172-5.536-1.172
						c-2.048,0-3.933,0.351-5.657,1.051c-1.725,0.701-3.044,1.429-3.96,2.182V111.157z"/>
					<path d="M203.1,116.491c-1.726,0.432-4.001,0.889-6.83,1.374c-2.828,0.485-6.101,0.727-9.819,0.727
						c-3.233,0-5.954-0.472-8.163-1.413c-2.21-0.942-3.988-2.276-5.334-4.001c-1.347-1.725-2.316-3.759-2.909-6.103
						c-0.594-2.344-0.89-4.942-0.89-7.798V75.679h7.517v21.982c0,5.119,0.808,8.782,2.424,10.991
						c1.616,2.21,4.336,3.314,8.163,3.314c0.808,0,1.643-0.027,2.505-0.082c0.861-0.053,1.669-0.121,2.424-0.201
						c0.754-0.081,1.441-0.162,2.061-0.242c0.619-0.081,1.063-0.174,1.333-0.283V75.679h7.517V116.491z"/>
					<path d="M213.927,76.891c1.724-0.431,4.013-0.89,6.87-1.375c2.855-0.484,6.142-0.727,9.859-0.727
						c3.34,0,6.114,0.472,8.323,1.414c2.209,0.943,3.974,2.263,5.294,3.96c1.32,1.698,2.249,3.732,2.788,6.102
						c0.538,2.371,0.809,4.984,0.809,7.839v23.598h-7.516V95.721c0-2.585-0.176-4.794-0.526-6.626
						c-0.351-1.831-0.928-3.313-1.736-4.445c-0.809-1.132-1.887-1.953-3.232-2.465c-1.349-0.512-3.019-0.768-5.011-0.768
						c-0.809,0-1.646,0.028-2.506,0.081c-0.862,0.054-1.684,0.122-2.465,0.203s-1.482,0.176-2.101,0.283
						c-0.621,0.109-1.065,0.189-1.334,0.242v35.479h-7.516V76.891z"/>
					<path d="M265.245,75.679h15.921v6.304h-15.921v19.396c0,2.101,0.161,3.839,0.485,5.212c0.322,1.374,0.808,2.452,1.454,3.232
						c0.646,0.782,1.454,1.334,2.425,1.657c0.97,0.322,2.101,0.485,3.394,0.485c2.316,0,4.149-0.256,5.496-0.769
						c1.345-0.511,2.263-0.874,2.747-1.091l1.616,6.143c-0.755,0.378-2.089,0.862-4,1.454c-1.913,0.593-4.081,0.889-6.507,0.889
						c-2.854,0-5.211-0.362-7.07-1.091c-1.858-0.727-3.354-1.818-4.484-3.272c-1.133-1.455-1.928-3.246-2.385-5.375
						c-0.459-2.128-0.688-4.593-0.688-7.395V63.96l7.517-1.293V75.679z"/>
					<path d="M322.058,116.491c-1.724,0.432-4,0.889-6.828,1.374c-2.829,0.485-6.102,0.727-9.819,0.727
						c-3.232,0-5.954-0.472-8.162-1.413c-2.211-0.942-3.988-2.276-5.334-4.001c-1.348-1.725-2.317-3.759-2.91-6.103
						c-0.594-2.344-0.89-4.942-0.89-7.798V75.679h7.518v21.982c0,5.119,0.808,8.782,2.424,10.991
						c1.616,2.21,4.337,3.314,8.162,3.314c0.809,0,1.643-0.027,2.506-0.082c0.861-0.053,1.67-0.121,2.424-0.201
						c0.755-0.081,1.441-0.162,2.062-0.242c0.618-0.081,1.063-0.174,1.333-0.283V75.679h7.516V116.491z"/>
				</g>
			</g>
		</g>
	</g>
	<g>
		<path fill="#888888" d="M82.659,137.5c0.26-0.198,0.679-0.41,1.253-0.633c0.575-0.222,1.255-0.333,2.037-0.333
			c0.859,0,1.623,0.154,2.29,0.461c0.667,0.307,1.231,0.736,1.691,1.288c0.459,0.553,0.809,1.208,1.047,1.968
			c0.237,0.759,0.356,1.591,0.356,2.497c0,0.966-0.142,1.833-0.425,2.601c-0.284,0.768-0.683,1.419-1.197,1.955
			c-0.514,0.538-1.127,0.948-1.841,1.231s-1.507,0.426-2.382,0.426c-1.059,0-1.933-0.068-2.624-0.206
			c-0.69-0.14-1.258-0.285-1.703-0.438v-17.215l1.496-0.276V137.5z M82.659,147.281c0.23,0.077,0.571,0.149,1.024,0.219
			c0.452,0.068,1.047,0.104,1.783,0.104c1.289,0,2.325-0.419,3.107-1.256c0.783-0.836,1.174-2.036,1.174-3.601
			c0-0.66-0.069-1.285-0.208-1.876s-0.361-1.104-0.667-1.541c-0.307-0.438-0.71-0.787-1.208-1.048s-1.115-0.393-1.853-0.393
			c-0.353,0-0.69,0.035-1.013,0.104c-0.321,0.069-0.621,0.158-0.897,0.264c-0.276,0.108-0.519,0.225-0.726,0.347
			c-0.207,0.123-0.379,0.238-0.517,0.346V147.281z"/>
		<path fill="#888888" d="M97.312,148.938c-0.499-0.937-0.983-1.913-1.453-2.925s-0.909-2.036-1.317-3.069
			c-0.409-1.035-0.782-2.071-1.12-3.106s-0.63-2.052-0.873-3.05h1.588c0.168,0.736,0.383,1.531,0.644,2.383s0.556,1.729,0.885,2.635
			c0.33,0.906,0.693,1.834,1.091,2.786c0.399,0.95,0.833,1.886,1.305,2.805c0.342-0.946,0.644-1.843,0.908-2.686
			c0.263-0.844,0.508-1.683,0.732-2.519c0.225-0.836,0.442-1.689,0.652-2.563c0.209-0.874,0.422-1.821,0.641-2.841h1.497
			c-0.5,2.227-1.062,4.392-1.685,6.496c-0.623,2.104-1.303,4.027-2.041,5.771c-0.292,0.69-0.592,1.284-0.9,1.783
			c-0.308,0.498-0.65,0.909-1.028,1.231c-0.377,0.322-0.816,0.56-1.317,0.714c-0.501,0.152-1.09,0.229-1.768,0.229
			c-0.386,0-0.736-0.046-1.052-0.138c-0.315-0.092-0.511-0.161-0.589-0.208l0.299-1.243c0.061,0.046,0.234,0.111,0.519,0.196
			c0.284,0.084,0.581,0.127,0.888,0.127c0.431,0,0.819-0.047,1.165-0.139c0.347-0.092,0.658-0.249,0.935-0.472
			c0.276-0.222,0.526-0.51,0.749-0.863C96.89,149.921,97.105,149.476,97.312,148.938z"/>
		<path fill="#888888" d="M116.943,149.03c-1.028,0-1.982-0.185-2.865-0.553c-0.882-0.367-1.649-0.903-2.302-1.61
			c-0.652-0.706-1.166-1.576-1.542-2.612c-0.376-1.036-0.563-2.221-0.563-3.556s0.203-2.52,0.609-3.556
			c0.407-1.035,0.947-1.906,1.623-2.611c0.674-0.706,1.457-1.239,2.347-1.601c0.89-0.36,1.818-0.54,2.785-0.54
			c0.598,0,1.143,0.038,1.634,0.114c0.491,0.077,0.92,0.174,1.289,0.288c0.369,0.115,0.683,0.23,0.944,0.346s0.46,0.219,0.598,0.311
			l-0.506,1.357c-0.384-0.23-0.871-0.455-1.462-0.679c-0.59-0.223-1.323-0.334-2.197-0.334c-0.998,0-1.868,0.17-2.612,0.507
			c-0.745,0.338-1.369,0.813-1.876,1.427c-0.506,0.614-0.886,1.343-1.138,2.186c-0.254,0.845-0.38,1.78-0.38,2.808
			c0,1.059,0.126,2.015,0.38,2.866c0.252,0.852,0.624,1.576,1.116,2.175c0.491,0.598,1.093,1.058,1.806,1.38
			c0.714,0.322,1.531,0.484,2.451,0.484c1.013,0,1.86-0.097,2.542-0.288c0.683-0.192,1.201-0.388,1.554-0.587l0.437,1.335
			c-0.107,0.076-0.292,0.165-0.552,0.265c-0.26,0.099-0.591,0.203-0.989,0.311c-0.399,0.107-0.86,0.195-1.381,0.265
			C118.171,148.996,117.588,149.03,116.943,149.03z"/>
		<path fill="#888888" d="M127.769,136.512c0.782,0,1.446,0.112,1.99,0.333c0.545,0.223,0.986,0.528,1.323,0.921
			c0.337,0.391,0.583,0.855,0.736,1.392c0.153,0.537,0.23,1.121,0.23,1.749v7.503c-0.153,0.045-0.376,0.096-0.667,0.149
			c-0.292,0.054-0.629,0.111-1.013,0.173c-0.384,0.061-0.81,0.111-1.277,0.148c-0.468,0.039-0.948,0.058-1.438,0.058
			c-0.63,0-1.209-0.069-1.738-0.206c-0.529-0.139-0.99-0.356-1.381-0.656c-0.391-0.3-0.698-0.684-0.92-1.149
			c-0.223-0.469-0.333-1.04-0.333-1.716c0-0.645,0.123-1.196,0.368-1.657c0.246-0.46,0.591-0.84,1.036-1.139
			s0.974-0.519,1.588-0.656s1.281-0.207,2.002-0.207c0.215,0,0.44,0.012,0.679,0.036c0.238,0.021,0.468,0.053,0.69,0.09
			c0.223,0.039,0.415,0.078,0.576,0.116c0.16,0.038,0.272,0.072,0.333,0.103v-0.735c0-0.415-0.031-0.817-0.092-1.209
			c-0.062-0.391-0.195-0.744-0.402-1.059c-0.208-0.314-0.499-0.566-0.875-0.76c-0.376-0.191-0.872-0.287-1.485-0.287
			c-0.875,0-1.527,0.062-1.956,0.185s-0.744,0.222-0.943,0.299l-0.207-1.312c0.261-0.124,0.664-0.237,1.208-0.345
			C126.346,136.564,127.001,136.512,127.769,136.512z M127.907,147.604c0.583,0,1.093-0.02,1.53-0.059
			c0.438-0.038,0.81-0.088,1.116-0.15v-4.188c-0.169-0.075-0.438-0.156-0.806-0.24c-0.368-0.085-0.875-0.128-1.519-0.128
			c-0.369,0-0.752,0.028-1.15,0.082c-0.399,0.054-0.768,0.168-1.105,0.345c-0.337,0.177-0.613,0.419-0.828,0.725
			c-0.215,0.308-0.322,0.713-0.322,1.22c0,0.445,0.073,0.821,0.218,1.128c0.146,0.307,0.353,0.553,0.622,0.736
			c0.269,0.185,0.591,0.317,0.967,0.402S127.432,147.604,127.907,147.604z"/>
		<path fill="#888888" d="M135.464,137.201c0.445-0.122,1.043-0.26,1.795-0.414c0.751-0.153,1.672-0.23,2.761-0.23
			c0.905,0,1.661,0.132,2.267,0.392c0.605,0.26,1.089,0.632,1.45,1.116c0.36,0.482,0.617,1.062,0.771,1.737
			c0.153,0.676,0.229,1.42,0.229,2.232v6.651h-1.496v-6.169c0-0.843-0.058-1.556-0.172-2.14c-0.115-0.583-0.307-1.058-0.575-1.426
			c-0.269-0.369-0.622-0.633-1.059-0.795c-0.437-0.161-0.986-0.242-1.646-0.242c-0.706,0-1.316,0.039-1.83,0.116
			c-0.514,0.076-0.848,0.146-1.001,0.207v10.448h-1.496V137.201z"/>
		<path fill="#888888" d="M158.351,142.748c0,0.937-0.135,1.787-0.403,2.554c-0.269,0.768-0.645,1.42-1.128,1.957
			c-0.483,0.536-1.055,0.955-1.714,1.254c-0.66,0.299-1.389,0.448-2.186,0.448c-0.798,0-1.527-0.149-2.187-0.448
			c-0.66-0.299-1.231-0.718-1.714-1.254c-0.483-0.537-0.859-1.189-1.128-1.957c-0.269-0.767-0.403-1.617-0.403-2.554
			c0-0.936,0.134-1.787,0.403-2.556c0.269-0.767,0.645-1.422,1.128-1.968c0.483-0.543,1.054-0.966,1.714-1.265
			c0.66-0.299,1.388-0.448,2.187-0.448c0.797,0,1.526,0.149,2.186,0.448c0.659,0.299,1.231,0.722,1.714,1.265
			c0.483,0.546,0.859,1.201,1.128,1.968C158.216,140.961,158.351,141.812,158.351,142.748z M156.763,142.748
			c0-1.488-0.346-2.674-1.036-3.557c-0.69-0.881-1.626-1.323-2.807-1.323c-1.182,0-2.118,0.442-2.808,1.323
			c-0.69,0.883-1.036,2.068-1.036,3.557s0.346,2.669,1.036,3.544c0.69,0.874,1.626,1.312,2.808,1.312
			c1.181,0,2.117-0.438,2.807-1.312C156.417,145.417,156.763,144.236,156.763,142.748z"/>
		<path fill="#888888" d="M161.227,137.201c0.445-0.122,1.043-0.26,1.795-0.414c0.752-0.153,1.672-0.23,2.762-0.23
			c0.905,0,1.661,0.132,2.268,0.392c0.605,0.26,1.088,0.632,1.449,1.116c0.36,0.482,0.618,1.062,0.771,1.737
			c0.153,0.676,0.229,1.42,0.229,2.232v6.651h-1.496v-6.169c0-0.843-0.058-1.556-0.172-2.14c-0.116-0.583-0.307-1.058-0.575-1.426
			c-0.269-0.369-0.622-0.633-1.059-0.795c-0.438-0.161-0.986-0.242-1.646-0.242c-0.706,0-1.315,0.039-1.83,0.116
			c-0.513,0.076-0.847,0.146-1,0.207v10.448h-1.496V137.201z"/>
		<path fill="#888888" d="M175.697,133.197c0,0.354-0.107,0.632-0.321,0.841c-0.215,0.206-0.477,0.311-0.783,0.311
			c-0.307,0-0.567-0.104-0.782-0.311c-0.215-0.209-0.322-0.487-0.322-0.841s0.107-0.634,0.322-0.84
			c0.215-0.207,0.475-0.311,0.782-0.311c0.307,0,0.568,0.104,0.783,0.311C175.59,132.563,175.697,132.844,175.697,133.197z
			 M175.353,148.686h-1.496v-11.898h1.496V148.686z"/>
		<path fill="#888888" d="M183.801,148.938c-0.92,0-1.734-0.146-2.439-0.437c-0.706-0.291-1.293-0.71-1.761-1.254
			c-0.468-0.545-0.824-1.196-1.07-1.956c-0.245-0.76-0.368-1.6-0.368-2.521c0-0.936,0.126-1.787,0.38-2.555
			c0.253-0.767,0.617-1.427,1.093-1.979c0.476-0.552,1.05-0.979,1.726-1.277c0.674-0.299,1.434-0.448,2.278-0.448
			c0.645,0,1.247,0.053,1.807,0.161c0.56,0.107,0.993,0.245,1.3,0.413l-0.391,1.289c-0.307-0.153-0.653-0.276-1.036-0.368
			c-0.384-0.093-0.897-0.139-1.542-0.139c-1.32,0-2.321,0.427-3.003,1.277c-0.683,0.853-1.024,2.061-1.024,3.625
			c0,0.706,0.078,1.354,0.23,1.944c0.153,0.591,0.402,1.097,0.748,1.52c0.346,0.422,0.791,0.752,1.335,0.989
			c0.544,0.237,1.208,0.357,1.991,0.357c0.644,0,1.185-0.073,1.622-0.22c0.438-0.146,0.755-0.271,0.955-0.38l0.323,1.29
			c-0.276,0.153-0.71,0.303-1.301,0.448S184.445,148.938,183.801,148.938z"/>
		<path fill="#888888" d="M192.979,136.512c0.782,0,1.446,0.112,1.99,0.333c0.543,0.223,0.985,0.528,1.323,0.921
			c0.337,0.391,0.583,0.855,0.736,1.392c0.153,0.537,0.23,1.121,0.23,1.749v7.503c-0.153,0.045-0.376,0.096-0.667,0.149
			c-0.292,0.054-0.629,0.111-1.013,0.173c-0.384,0.061-0.81,0.111-1.278,0.148c-0.468,0.039-0.947,0.058-1.438,0.058
			c-0.629,0-1.208-0.069-1.737-0.206c-0.53-0.139-0.99-0.356-1.38-0.656c-0.392-0.3-0.699-0.684-0.921-1.149
			c-0.223-0.469-0.333-1.04-0.333-1.716c0-0.645,0.123-1.196,0.369-1.657c0.245-0.46,0.59-0.84,1.036-1.139
			c0.444-0.299,0.975-0.519,1.587-0.656c0.614-0.138,1.281-0.207,2.003-0.207c0.214,0,0.44,0.012,0.678,0.036
			c0.238,0.021,0.468,0.053,0.69,0.09c0.222,0.039,0.414,0.078,0.575,0.116s0.272,0.072,0.334,0.103v-0.735
			c0-0.415-0.031-0.817-0.092-1.209c-0.062-0.391-0.195-0.744-0.403-1.059c-0.207-0.314-0.499-0.566-0.875-0.76
			c-0.375-0.191-0.871-0.287-1.484-0.287c-0.875,0-1.526,0.062-1.956,0.185c-0.43,0.123-0.744,0.222-0.944,0.299l-0.207-1.312
			c0.26-0.124,0.664-0.237,1.208-0.345C191.555,136.564,192.21,136.512,192.979,136.512z M193.116,147.604
			c0.583,0,1.093-0.02,1.531-0.059c0.437-0.038,0.809-0.088,1.116-0.15v-4.188c-0.169-0.075-0.438-0.156-0.806-0.24
			c-0.368-0.085-0.875-0.128-1.519-0.128c-0.369,0-0.751,0.028-1.151,0.082s-0.767,0.168-1.104,0.345
			c-0.338,0.177-0.614,0.419-0.829,0.725c-0.215,0.308-0.322,0.713-0.322,1.22c0,0.445,0.072,0.821,0.218,1.128
			s0.353,0.553,0.622,0.736c0.268,0.185,0.591,0.317,0.967,0.402C192.215,147.562,192.641,147.604,193.116,147.604z"/>
		<path fill="#888888" d="M203.661,148.893c-0.506-0.016-0.947-0.081-1.323-0.196c-0.375-0.114-0.69-0.291-0.943-0.529
			c-0.253-0.236-0.445-0.544-0.575-0.92c-0.131-0.376-0.196-0.849-0.196-1.416v-14.729l1.496-0.276v14.959
			c0,0.368,0.034,0.664,0.103,0.887c0.069,0.223,0.173,0.398,0.312,0.529c0.138,0.13,0.318,0.227,0.54,0.287
			c0.222,0.062,0.487,0.116,0.794,0.161L203.661,148.893z"/>
		<path fill="#888888" d="M215.375,136.512c0.782,0,1.445,0.112,1.99,0.333c0.544,0.223,0.985,0.528,1.323,0.921
			c0.337,0.391,0.581,0.855,0.736,1.392c0.153,0.537,0.229,1.121,0.229,1.749v7.503c-0.153,0.045-0.377,0.096-0.667,0.149
			c-0.291,0.054-0.629,0.111-1.012,0.173c-0.385,0.061-0.811,0.111-1.277,0.148c-0.47,0.039-0.947,0.058-1.439,0.058
			c-0.629,0-1.208-0.069-1.737-0.206c-0.529-0.139-0.99-0.356-1.381-0.656c-0.391-0.3-0.698-0.684-0.92-1.149
			c-0.223-0.469-0.334-1.04-0.334-1.716c0-0.645,0.123-1.196,0.368-1.657c0.246-0.46,0.591-0.84,1.036-1.139
			s0.974-0.519,1.587-0.656s1.28-0.207,2.003-0.207c0.215,0,0.44,0.012,0.679,0.036c0.237,0.021,0.468,0.053,0.69,0.09
			c0.223,0.039,0.414,0.078,0.575,0.116s0.271,0.072,0.334,0.103v-0.735c0-0.415-0.032-0.817-0.092-1.209
			c-0.062-0.391-0.196-0.744-0.403-1.059s-0.499-0.566-0.875-0.76c-0.376-0.191-0.87-0.287-1.483-0.287
			c-0.875,0-1.527,0.062-1.957,0.185c-0.43,0.123-0.745,0.222-0.944,0.299l-0.207-1.312c0.261-0.124,0.664-0.237,1.209-0.345
			C213.951,136.564,214.606,136.512,215.375,136.512z M215.513,147.604c0.583,0,1.093-0.02,1.53-0.059
			c0.438-0.038,0.809-0.088,1.116-0.15v-4.188c-0.17-0.075-0.438-0.156-0.807-0.24c-0.368-0.085-0.874-0.128-1.519-0.128
			c-0.368,0-0.752,0.028-1.15,0.082c-0.399,0.054-0.768,0.168-1.104,0.345c-0.338,0.177-0.614,0.419-0.828,0.725
			c-0.215,0.308-0.323,0.713-0.323,1.22c0,0.445,0.074,0.821,0.22,1.128c0.145,0.307,0.353,0.553,0.621,0.736
			c0.268,0.185,0.591,0.317,0.965,0.402C214.609,147.562,215.037,147.604,215.513,147.604z"/>
		<path fill="#888888" d="M223.069,137.201c0.445-0.122,1.044-0.26,1.795-0.414c0.752-0.153,1.673-0.23,2.762-0.23
			c0.904,0,1.661,0.132,2.267,0.392s1.089,0.632,1.45,1.116c0.36,0.482,0.617,1.062,0.771,1.737c0.152,0.676,0.229,1.42,0.229,2.232
			v6.651h-1.495v-6.169c0-0.843-0.057-1.556-0.174-2.14c-0.114-0.583-0.306-1.058-0.574-1.426c-0.27-0.369-0.622-0.633-1.06-0.795
			c-0.437-0.161-0.985-0.242-1.645-0.242c-0.706,0-1.316,0.039-1.831,0.116c-0.514,0.076-0.847,0.146-1,0.207v10.448h-1.496V137.201
			z"/>
		<path fill="#888888" d="M245.266,148.317c-0.444,0.152-1.013,0.298-1.704,0.438c-0.688,0.138-1.564,0.206-2.623,0.206
			c-0.874,0-1.667-0.143-2.381-0.426c-0.713-0.283-1.327-0.693-1.842-1.231c-0.514-0.536-0.912-1.188-1.196-1.955
			s-0.425-1.635-0.425-2.601c0-0.906,0.117-1.738,0.355-2.497c0.239-0.76,0.588-1.415,1.047-1.968
			c0.461-0.552,1.024-0.981,1.692-1.288c0.667-0.307,1.431-0.461,2.289-0.461c0.783,0,1.461,0.111,2.037,0.333
			c0.575,0.223,0.993,0.435,1.255,0.633v-6.397l1.495-0.276V148.317z M243.771,138.951c-0.139-0.107-0.311-0.223-0.519-0.346
			c-0.207-0.122-0.448-0.238-0.724-0.347c-0.277-0.105-0.575-0.194-0.898-0.264s-0.659-0.104-1.013-0.104
			c-0.735,0-1.354,0.132-1.853,0.393c-0.5,0.261-0.902,0.609-1.208,1.048c-0.308,0.437-0.528,0.95-0.667,1.541
			c-0.14,0.591-0.208,1.216-0.208,1.876c0,1.564,0.393,2.765,1.174,3.601c0.782,0.837,1.818,1.256,3.107,1.256
			c0.736,0,1.331-0.036,1.783-0.104c0.451-0.069,0.794-0.142,1.024-0.219V138.951z"/>
		<path fill="#888888" d="M258.844,130.826c0.645,0,1.169,0.051,1.576,0.15s0.671,0.188,0.795,0.264l-0.3,1.29
			c-0.169-0.077-0.418-0.157-0.748-0.242c-0.331-0.084-0.748-0.127-1.254-0.127c-1.059,0-1.815,0.269-2.268,0.806
			s-0.678,1.397-0.678,2.577v1.243h4.785v1.266h-4.785v10.633h-1.497v-13.188c0-1.55,0.357-2.715,1.07-3.497
			C256.257,131.218,257.355,130.826,258.844,130.826z"/>
		<path fill="#888888" d="M266.966,136.557c0.492,0,0.956,0.038,1.394,0.116c0.438,0.076,0.74,0.153,0.908,0.229l-0.299,1.29
			c-0.123-0.062-0.372-0.127-0.747-0.196c-0.376-0.069-0.872-0.104-1.484-0.104c-0.646,0-1.163,0.047-1.554,0.14
			c-0.392,0.092-0.647,0.169-0.771,0.229v10.427h-1.495V137.34c0.383-0.169,0.912-0.342,1.587-0.519
			C265.181,136.646,266.001,136.557,266.966,136.557z"/>
		<path fill="#888888" d="M273.22,133.197c0,0.354-0.107,0.632-0.322,0.841c-0.215,0.206-0.476,0.311-0.781,0.311
			c-0.307,0-0.569-0.104-0.784-0.311c-0.214-0.209-0.321-0.487-0.321-0.841s0.107-0.634,0.321-0.84
			c0.215-0.207,0.478-0.311,0.784-0.311c0.306,0,0.566,0.104,0.781,0.311C273.112,132.563,273.22,132.844,273.22,133.197z
			 M272.875,148.686h-1.497v-11.898h1.497V148.686z"/>
		<path fill="#888888" d="M275.734,142.725c0-1.044,0.15-1.952,0.449-2.727c0.298-0.774,0.69-1.424,1.174-1.945
			c0.483-0.522,1.036-0.909,1.657-1.163c0.621-0.252,1.262-0.378,1.921-0.378c1.458,0,2.62,0.476,3.486,1.426
			c0.867,0.952,1.301,2.416,1.301,4.396c0,0.123-0.004,0.246-0.011,0.369c-0.009,0.121-0.02,0.237-0.034,0.345h-8.355
			c0.047,1.457,0.407,2.578,1.083,3.359c0.675,0.783,1.749,1.175,3.222,1.175c0.812,0,1.456-0.077,1.933-0.23
			c0.476-0.153,0.82-0.285,1.035-0.392l0.277,1.289c-0.215,0.123-0.618,0.268-1.209,0.438c-0.591,0.168-1.284,0.252-2.082,0.252
			c-1.044,0-1.935-0.153-2.67-0.46c-0.737-0.307-1.343-0.735-1.818-1.288c-0.477-0.553-0.82-1.209-1.036-1.967
			C275.842,144.463,275.734,143.631,275.734,142.725z M284.181,141.78c-0.03-1.242-0.322-2.209-0.874-2.899
			c-0.553-0.689-1.336-1.035-2.347-1.035c-0.538,0-1.018,0.107-1.439,0.323c-0.421,0.214-0.79,0.503-1.104,0.861
			c-0.314,0.361-0.561,0.779-0.736,1.255c-0.177,0.476-0.28,0.975-0.311,1.495H284.181z"/>
		<path fill="#888888" d="M288.535,137.201c0.445-0.122,1.043-0.26,1.796-0.414c0.75-0.153,1.67-0.23,2.76-0.23
			c0.905,0,1.66,0.132,2.268,0.392c0.605,0.26,1.09,0.632,1.449,1.116c0.361,0.482,0.619,1.062,0.771,1.737
			c0.153,0.676,0.229,1.42,0.229,2.232v6.651h-1.495v-6.169c0-0.843-0.058-1.556-0.173-2.14c-0.115-0.583-0.308-1.058-0.575-1.426
			c-0.268-0.369-0.62-0.633-1.06-0.795c-0.437-0.161-0.985-0.242-1.645-0.242c-0.706,0-1.314,0.039-1.83,0.116
			c-0.515,0.076-0.848,0.146-1,0.207v10.448h-1.496V137.201z"/>
		<path fill="#888888" d="M310.73,148.317c-0.444,0.152-1.013,0.298-1.702,0.438c-0.691,0.138-1.564,0.206-2.624,0.206
			c-0.874,0-1.669-0.143-2.383-0.426c-0.712-0.283-1.326-0.693-1.839-1.231c-0.516-0.536-0.913-1.188-1.197-1.955
			c-0.285-0.768-0.425-1.635-0.425-2.601c0-0.906,0.117-1.738,0.355-2.497c0.237-0.76,0.587-1.415,1.046-1.968
			c0.461-0.552,1.024-0.981,1.692-1.288c0.667-0.307,1.431-0.461,2.29-0.461c0.782,0,1.461,0.111,2.036,0.333
			c0.576,0.223,0.993,0.435,1.255,0.633v-6.397l1.495-0.276V148.317z M309.235,138.951c-0.138-0.107-0.311-0.223-0.518-0.346
			c-0.207-0.122-0.448-0.238-0.726-0.347c-0.276-0.105-0.575-0.194-0.897-0.264s-0.66-0.104-1.013-0.104
			c-0.737,0-1.353,0.132-1.852,0.393s-0.902,0.609-1.209,1.048c-0.307,0.437-0.528,0.95-0.668,1.541
			c-0.138,0.591-0.206,1.216-0.206,1.876c0,1.564,0.391,2.765,1.174,3.601c0.781,0.837,1.818,1.256,3.106,1.256
			c0.736,0,1.33-0.036,1.783-0.104c0.452-0.069,0.795-0.142,1.024-0.219V138.951z"/>
		<path fill="#888888" d="M316.683,147.627c0.858,0,1.568-0.143,2.129-0.426c0.56-0.284,0.839-0.764,0.839-1.438
			c0-0.323-0.048-0.599-0.149-0.828c-0.1-0.231-0.265-0.438-0.495-0.622c-0.229-0.184-0.532-0.36-0.907-0.528
			c-0.376-0.169-0.841-0.369-1.394-0.6c-0.446-0.184-0.866-0.371-1.266-0.562c-0.399-0.192-0.752-0.415-1.059-0.668
			s-0.552-0.557-0.735-0.909c-0.185-0.354-0.277-0.782-0.277-1.289c0-0.967,0.365-1.749,1.095-2.347
			c0.728-0.6,1.729-0.897,3.002-0.897c0.813,0,1.484,0.068,2.014,0.206c0.529,0.139,0.9,0.262,1.116,0.368l-0.345,1.335
			c-0.185-0.092-0.495-0.215-0.933-0.368s-1.079-0.229-1.922-0.229c-0.337,0-0.656,0.033-0.954,0.104
			c-0.3,0.069-0.565,0.177-0.795,0.322c-0.229,0.147-0.414,0.331-0.552,0.554s-0.207,0.496-0.207,0.818
			c0,0.323,0.061,0.6,0.183,0.831c0.123,0.23,0.304,0.434,0.541,0.611c0.238,0.177,0.53,0.341,0.875,0.494
			c0.346,0.152,0.74,0.32,1.186,0.504c0.46,0.184,0.9,0.369,1.323,0.562c0.423,0.19,0.795,0.42,1.116,0.689
			c0.321,0.268,0.583,0.591,0.781,0.966c0.201,0.375,0.3,0.848,0.3,1.415c0,1.074-0.403,1.888-1.208,2.438
			c-0.805,0.554-1.906,0.829-3.302,0.829c-1.044,0-1.842-0.089-2.395-0.265c-0.551-0.176-0.92-0.311-1.104-0.402l0.392-1.357
			c0.046,0.03,0.146,0.079,0.299,0.149c0.153,0.068,0.361,0.146,0.622,0.229c0.26,0.085,0.571,0.157,0.932,0.219
			C315.79,147.597,316.208,147.627,316.683,147.627z"/>
	</g>
</g>
</svg>
