<?xml version="1.0" encoding="utf-8"?>
<!-- Generator: Adobe Illustrator 16.0.4, SVG Export Plug-In . SVG Version: 6.00 Build 0)  -->
<!DOCTYPE svg PUBLIC "-//W3C//DTD SVG 1.1//EN" "http://www.w3.org/Graphics/SVG/1.1/DTD/svg11.dtd">
<svg version="1.1" id="AW" xmlns="http://www.w3.org/2000/svg" xmlns:xlink="http://www.w3.org/1999/xlink" x="0px" y="0px"
	 width="1190.551px" height="841.89px" viewBox="0 0 1190.551 841.89" enable-background="new 0 0 1190.551 841.89"
	 xml:space="preserve">
<g>
	<g>
		<path fill="#E95420" d="M599.946,497.687c-9.035,0-17.428-1.619-25.18-4.855c-7.755-3.235-14.496-7.953-20.224-14.156
			c-5.733-6.2-10.249-13.854-13.552-22.954c-3.305-9.102-4.955-19.518-4.955-31.249c0-11.729,1.786-22.145,5.359-31.247
			c3.57-9.101,8.324-16.752,14.258-22.955c5.933-6.2,12.808-10.887,20.631-14.056c7.817-3.167,15.977-4.753,24.472-4.753
			c5.258,0,10.042,0.338,14.359,1.012c4.312,0.676,8.089,1.516,11.325,2.528c3.236,1.011,5.998,2.023,8.292,3.034
			c2.292,1.011,4.046,1.921,5.26,2.73l-4.45,11.932c-3.372-2.022-7.653-4.01-12.842-5.966c-5.192-1.953-11.63-2.933-19.316-2.933
			c-8.766,0-16.416,1.485-22.955,4.449c-6.541,2.967-12.034,7.148-16.484,12.539c-4.448,5.395-7.785,11.8-10.011,19.214
			c-2.225,7.417-3.337,15.643-3.337,24.673c0,9.305,1.113,17.698,3.337,25.181c2.226,7.483,5.492,13.854,9.81,19.112
			c4.314,5.258,9.606,9.304,15.876,12.135c6.271,2.831,13.45,4.247,21.54,4.247c8.9,0,16.349-0.841,22.349-2.528
			c5.998-1.685,10.548-3.403,13.653-5.156l3.842,11.729c-0.945,0.677-2.562,1.45-4.854,2.325c-2.294,0.88-5.192,1.789-8.695,2.731
			c-3.508,0.942-7.554,1.719-12.136,2.325C610.732,497.383,605.609,497.687,599.946,497.687z"/>
		<path fill="#E95420" d="M742.529,442.472c0,8.227-1.183,15.71-3.54,22.45c-2.359,6.744-5.663,12.474-9.91,17.19
			c-4.246,4.723-9.271,8.395-15.066,11.023c-5.799,2.629-12.205,3.944-19.215,3.944c-7.012,0-13.417-1.315-19.212-3.944
			c-5.8-2.629-10.82-6.301-15.067-11.023c-4.248-4.717-7.553-10.446-9.911-17.19c-2.36-6.74-3.539-14.224-3.539-22.45
			c0-8.222,1.179-15.704,3.539-22.449c2.358-6.741,5.663-12.504,9.911-17.292c4.247-4.785,9.268-8.494,15.067-11.124
			c5.795-2.629,12.2-3.944,19.212-3.944c7.01,0,13.416,1.315,19.215,3.944c5.795,2.63,10.82,6.339,15.066,11.124
			c4.247,4.788,7.551,10.551,9.91,17.292C741.347,426.768,742.529,434.25,742.529,442.472z M728.573,442.472
			c0-13.076-3.033-23.492-9.1-31.247c-6.069-7.752-14.294-11.629-24.676-11.629c-10.384,0-18.605,3.877-24.673,11.629
			c-6.067,7.754-9.102,18.17-9.102,31.247c0,13.08,3.034,23.461,9.102,31.147c6.067,7.684,14.289,11.528,24.673,11.528
			c10.382,0,18.606-3.845,24.676-11.528C725.54,465.933,728.573,455.552,728.573,442.472z"/>
		<path fill="#E95420" d="M797.798,388.068c4.314,0,8.395,0.338,12.236,1.011c3.844,0.677,6.505,1.35,7.989,2.023l-2.63,11.326
			c-1.08-0.538-3.271-1.112-6.572-1.719c-3.306-0.607-7.654-0.91-13.045-0.91c-5.662,0-10.214,0.404-13.651,1.213
			c-3.438,0.809-5.698,1.485-6.775,2.022v91.617h-13.146v-99.707c3.368-1.482,8.021-2.999,13.956-4.551
			C782.091,388.845,789.305,388.068,797.798,388.068z"/>
		<path fill="#E95420" d="M820.975,442.271c0-9.167,1.314-17.156,3.944-23.967c2.629-6.807,6.066-12.504,10.313-17.09
			c4.249-4.582,9.102-7.989,14.562-10.213s11.089-3.337,16.888-3.337c12.808,0,23.022,4.181,30.641,12.539
			c7.616,8.362,11.427,21.236,11.427,38.631c0,1.079-0.034,2.157-0.102,3.235c-0.068,1.08-0.17,2.091-0.303,3.033H834.93
			c0.404,12.811,3.571,22.651,9.506,29.528c5.932,6.876,15.37,10.314,28.314,10.314c7.146,0,12.808-0.673,16.989-2.022
			c4.178-1.347,7.211-2.494,9.102-3.439l2.427,11.327c-1.891,1.081-5.43,2.361-10.619,3.842c-5.192,1.483-11.294,2.226-18.303,2.226
			c-9.171,0-16.988-1.349-23.46-4.046c-6.472-2.695-11.8-6.472-15.979-11.325c-4.181-4.854-7.214-10.618-9.102-17.292
			C821.917,457.541,820.975,450.229,820.975,442.271z M895.2,433.979c-0.272-10.922-2.831-19.416-7.687-25.484
			c-4.853-6.067-11.729-9.101-20.629-9.101c-4.721,0-8.934,0.945-12.64,2.832c-3.711,1.89-6.947,4.418-9.708,7.584
			c-2.766,3.17-4.923,6.845-6.472,11.023c-1.552,4.181-2.463,8.563-2.731,13.146H895.2z"/>
	</g>
	<g>
		<path fill="#E95420" d="M480.227,425.197c0,54.79-44.418,99.212-99.213,99.212c-54.797,0-99.212-44.422-99.212-99.212
			c0-54.796,44.415-99.213,99.212-99.213C435.809,325.984,480.227,370.401,480.227,425.197z"/>
		<path fill="#FFFFFF" d="M329.518,425.195c0,7.045-5.711,12.756-12.756,12.756s-12.756-5.711-12.756-12.756
			c0-7.044,5.711-12.755,12.756-12.755S329.518,418.151,329.518,425.195z M402.094,487.218c3.522,6.1,11.322,8.19,17.422,4.668
			c6.1-3.521,8.19-11.321,4.668-17.423c-3.522-6.101-11.323-8.189-17.422-4.668C400.662,473.317,398.572,481.117,402.094,487.218z
			 M424.185,375.93c3.522-6.101,1.433-13.9-4.669-17.422c-6.098-3.521-13.9-1.432-17.422,4.668
			c-3.522,6.1-1.431,13.901,4.668,17.422C412.862,384.12,420.663,382.03,424.185,375.93z M381.014,388.819
			c19.003,0,34.602,14.573,36.235,33.154l18.453-0.288c-0.874-13.81-6.859-26.231-16.09-35.39
			c-4.889,1.887-10.557,1.63-15.449-1.195c-4.896-2.827-7.953-7.612-8.761-12.794c-4.585-1.245-9.408-1.913-14.388-1.913
			c-8.731,0-16.984,2.042-24.31,5.673l8.981,16.132C370.344,390.031,375.537,388.819,381.014,388.819z M344.636,425.197
			c0-12.308,6.113-23.187,15.468-29.771l-9.479-15.84c-10.978,7.33-19.162,18.518-22.611,31.625
			c4.084,3.291,6.701,8.331,6.701,13.984s-2.616,10.693-6.702,13.986c3.45,13.107,11.633,24.293,22.612,31.625l9.479-15.841
			C350.75,448.383,344.636,437.505,344.636,425.197z M381.014,461.575c-5.477,0-10.67-1.214-15.329-3.382l-8.981,16.132
			c7.325,3.633,15.579,5.675,24.31,5.675c4.979,0,9.802-0.669,14.388-1.914c0.808-5.182,3.865-9.967,8.76-12.794
			c4.893-2.823,10.56-3.081,15.449-1.193c9.231-9.159,15.217-21.58,16.091-35.391l-18.453-0.288
			C415.616,447,400.018,461.575,381.014,461.575z"/>
	</g>
</g>
</svg>
