<?xml version="1.0" encoding="utf-8"?>
<!-- Generator: Adobe Illustrator 16.0.4, SVG Export Plug-In . SVG Version: 6.00 Build 0)  -->
<!DOCTYPE svg PUBLIC "-//W3C//DTD SVG 1.1//EN" "http://www.w3.org/Graphics/SVG/1.1/DTD/svg11.dtd">
<svg version="1.1" id="AW" xmlns="http://www.w3.org/2000/svg" xmlns:xlink="http://www.w3.org/1999/xlink" x="0px" y="0px"
	 width="1190.551px" height="841.89px" viewBox="0 0 1190.551 841.89" enable-background="new 0 0 1190.551 841.89"
	 xml:space="preserve">
<g>
	<g>
		<path d="M463.61,695.545c-9.715,0-18.74-1.74-27.076-5.221c-8.34-3.479-15.588-8.551-21.746-15.223
			c-6.164-6.666-11.021-14.896-14.572-24.682c-3.555-9.787-5.328-20.988-5.328-33.602s1.92-23.812,5.764-33.6
			c3.838-9.785,8.949-18.014,15.33-24.684c6.381-6.666,13.773-11.705,22.184-15.115c8.406-3.404,17.18-5.109,26.314-5.109
			c5.654,0,10.799,0.363,15.441,1.086c4.637,0.729,8.697,1.633,12.178,2.721s6.449,2.174,8.916,3.26
			c2.465,1.088,4.35,2.066,5.656,2.938l-4.785,12.83c-3.627-2.174-8.23-4.311-13.811-6.414c-5.582-2.1-12.504-3.154-20.77-3.154
			c-9.426,0-17.65,1.596-24.682,4.785c-7.033,3.189-12.941,7.686-17.725,13.482c-4.783,5.801-8.373,12.689-10.766,20.66
			c-2.393,7.975-3.588,16.82-3.588,26.531c0,10.006,1.195,19.031,3.588,27.076c2.393,8.047,5.906,14.896,10.549,20.551
			c4.639,5.656,10.328,10.004,17.07,13.049s14.463,4.566,23.16,4.566c9.57,0,17.58-0.902,24.031-2.717
			c6.451-1.812,11.344-3.66,14.682-5.545l4.131,12.611c-1.016,0.729-2.756,1.559-5.221,2.502c-2.465,0.945-5.582,1.924-9.35,2.938
			c-3.771,1.012-8.121,1.848-13.049,2.498C475.208,695.219,469.698,695.545,463.61,695.545z"/>
		<path d="M616.929,636.174c0,8.846-1.273,16.891-3.809,24.141c-2.537,7.25-6.088,13.412-10.656,18.484
			c-4.566,5.078-9.969,9.025-16.199,11.854c-6.236,2.826-13.125,4.24-20.662,4.24c-7.541,0-14.428-1.414-20.658-4.24
			c-6.236-2.828-11.635-6.775-16.201-11.854c-4.568-5.072-8.123-11.234-10.658-18.484c-2.539-7.25-3.805-15.295-3.805-24.141
			c0-8.842,1.266-16.887,3.805-24.141c2.535-7.248,6.09-13.445,10.658-18.594c4.566-5.145,9.965-9.135,16.201-11.961
			c6.23-2.828,13.117-4.24,20.658-4.24c7.537,0,14.426,1.412,20.662,4.24c6.23,2.826,11.633,6.816,16.199,11.961
			c4.568,5.148,8.119,11.346,10.656,18.594C615.655,619.287,616.929,627.332,616.929,636.174z M601.921,636.174
			c0-14.062-3.262-25.262-9.785-33.6c-6.525-8.334-15.369-12.504-26.533-12.504c-11.166,0-20.006,4.17-26.531,12.504
			c-6.523,8.338-9.785,19.537-9.785,33.6c0,14.064,3.262,25.227,9.785,33.492c6.525,8.262,15.365,12.396,26.531,12.396
			c11.164,0,20.008-4.135,26.533-12.396C598.659,661.4,601.921,650.238,601.921,636.174z"/>
		<path d="M676.358,577.674c4.639,0,9.025,0.363,13.156,1.086c4.133,0.729,6.994,1.451,8.59,2.176l-2.826,12.178
			c-1.162-0.578-3.518-1.195-7.066-1.848c-3.557-0.652-8.232-0.979-14.027-0.979c-6.09,0-10.984,0.434-14.682,1.305
			c-3.695,0.869-6.127,1.598-7.285,2.176v98.514h-14.135V585.068c3.621-1.594,8.623-3.227,15.006-4.895
			C659.466,578.51,667.224,577.674,676.358,577.674z"/>
		<path d="M701.278,635.957c0-9.857,1.414-18.447,4.242-25.771c2.826-7.32,6.521-13.445,11.09-18.377
			c4.568-4.928,9.787-8.59,15.658-10.982c5.873-2.393,11.926-3.588,18.16-3.588c13.771,0,24.754,4.496,32.947,13.482
			c8.189,8.992,12.287,22.836,12.287,41.539c0,1.162-0.037,2.32-0.109,3.48c-0.074,1.16-0.184,2.248-0.326,3.262h-78.943
			c0.436,13.775,3.84,24.355,10.223,31.75c6.377,7.395,16.527,11.092,30.445,11.092c7.684,0,13.771-0.723,18.268-2.174
			c4.494-1.449,7.754-2.684,9.787-3.699l2.609,12.18c-2.033,1.162-5.838,2.539-11.418,4.131c-5.584,1.596-12.145,2.393-19.682,2.393
			c-9.859,0-18.266-1.449-25.225-4.35c-6.961-2.898-12.689-6.959-17.182-12.178c-4.496-5.221-7.758-11.418-9.787-18.594
			C702.292,652.377,701.278,644.514,701.278,635.957z M781.093,627.041c-0.293-11.744-3.045-20.879-8.266-27.402
			c-5.219-6.525-12.611-9.787-22.182-9.787c-5.076,0-9.605,1.016-13.592,3.045c-3.99,2.031-7.471,4.75-10.438,8.154
			c-2.975,3.408-5.295,7.359-6.959,11.854c-1.67,4.496-2.648,9.207-2.938,14.137H781.093z"/>
	</g>
	<g>
		<path d="M768.188,324.927c0,93.928-76.145,170.077-170.078,170.077c-93.938,0-170.078-76.149-170.078-170.077
			c0-93.936,76.141-170.078,170.078-170.078C692.044,154.849,768.188,230.991,768.188,324.927z"/>
		<g>
			<circle fill="#FFFFFF" cx="487.965" cy="324.926" r="21.866"/>
			<circle fill="#FFFFFF" cx="653.183" cy="420.315" r="21.864"/>
			<circle fill="#FFFFFF" cx="653.184" cy="229.538" r="21.865"/>
			<path fill="#FFFFFF" d="M598.112,262.564c32.578,0,59.316,24.983,62.115,56.836l31.635-0.494
				c-1.498-23.675-11.758-44.968-27.582-60.668c-8.383,3.234-18.098,2.795-26.484-2.048c-8.393-4.845-13.633-13.048-15.02-21.933
				c-7.859-2.134-16.129-3.279-24.664-3.279c-14.969,0-29.117,3.5-41.676,9.727l15.396,27.654
				C579.819,264.644,588.722,262.564,598.112,262.564z"/>
			<path fill="#FFFFFF" d="M535.749,324.927c0-21.1,10.48-39.749,26.516-51.034l-16.248-27.154
				c-18.818,12.565-32.85,31.743-38.762,54.214c7.002,5.642,11.486,14.281,11.486,23.974c0,9.691-4.484,18.332-11.488,23.974
				c5.914,22.471,19.943,41.648,38.764,54.215l16.248-27.154C546.229,364.676,535.749,346.025,535.749,324.927z"/>
			<path fill="#FFFFFF" d="M598.112,387.289c-9.391,0-18.293-2.08-26.279-5.795l-15.396,27.653
				c12.559,6.227,26.707,9.728,41.676,9.728c8.535,0,16.803-1.146,24.664-3.279c1.385-8.884,6.625-17.088,15.018-21.934
				c8.387-4.841,18.102-5.281,26.484-2.047c15.824-15.701,26.086-36.994,27.584-60.668l-31.635-0.494
				C657.429,362.305,630.69,387.289,598.112,387.289z"/>
		</g>
	</g>
</g>
</svg>
