<?xml version="1.0" encoding="utf-8"?>
<!-- Generator: Adobe Illustrator 16.0.4, SVG Export Plug-In . SVG Version: 6.00 Build 0)  -->
<!DOCTYPE svg PUBLIC "-//W3C//DTD SVG 1.1//EN" "http://www.w3.org/Graphics/SVG/1.1/DTD/svg11.dtd">
<svg version="1.1" id="supported__x5F__white" xmlns="http://www.w3.org/2000/svg" xmlns:xlink="http://www.w3.org/1999/xlink"
	 x="0px" y="0px" width="1190.551px" height="841.89px" viewBox="0 0 1190.551 841.89" enable-background="new 0 0 1190.551 841.89"
	 xml:space="preserve">
<g>
	<g>
		<g>
			<g>
				<circle fill="#FFFFFF" cx="871.462" cy="356.042" r="35.626"/>
				<path d="M847.236,351.284c-2.629,0-4.758,2.129-4.758,4.758c0,2.627,2.129,4.756,4.758,4.756c2.627,0,4.756-2.129,4.756-4.756
					C851.991,353.413,849.863,351.284,847.236,351.284z M881.197,372.902c-2.274,1.313-3.055,4.222-1.742,6.495
					c1.314,2.274,4.222,3.055,6.496,1.74c2.275-1.312,3.056-4.22,1.742-6.495C886.381,372.37,883.471,371.589,881.197,372.902z
					 M857.568,356.042c0-4.7,2.334-8.854,5.906-11.367l-3.478-5.825c-4.161,2.782-7.258,7.032-8.543,12.012
					c1.5,1.226,2.461,3.091,2.461,5.182c0,2.09-0.961,3.954-2.461,5.18c1.283,4.98,4.381,9.23,8.543,12.013l3.478-5.825
					C859.902,364.895,857.568,360.743,857.568,356.042z M871.461,342.147c7.258,0,13.213,5.563,13.838,12.661l6.776-0.1
					c-0.332-5.24-2.621-9.943-6.139-13.402c-1.809,0.685-3.896,0.579-5.703-0.462c-1.809-1.044-2.942-2.805-3.254-4.716
					c-1.758-0.485-3.604-0.751-5.521-0.751c-3.288,0-6.396,0.772-9.155,2.139l3.305,5.924
					C867.387,342.612,869.368,342.147,871.461,342.147z M871.461,369.934c-2.093,0-4.074-0.465-5.853-1.292l-3.305,5.924
					c2.76,1.366,5.867,2.14,9.156,2.14c1.913,0,3.762-0.266,5.52-0.753c0.312-1.91,1.445-3.67,3.254-4.715
					c1.808-1.043,3.896-1.146,5.703-0.463c3.519-3.459,5.807-8.162,6.139-13.401l-6.778-0.1
					C884.674,364.372,878.719,369.934,871.461,369.934z M881.195,339.178c2.275,1.313,5.185,0.535,6.496-1.739
					c1.312-2.274,0.535-5.183-1.74-6.496c-2.274-1.312-5.182-0.533-6.496,1.741C878.143,334.958,878.922,337.866,881.195,339.178z"
					/>
			</g>
			<g>
				<path fill="#FFFFFF" d="M383.062,449.521c-3.621,0.906-8.397,1.865-14.335,2.885c-5.938,1.018-12.809,1.525-20.613,1.525
					c-6.784,0-12.497-0.99-17.134-2.967c-4.639-1.979-8.372-4.779-11.196-8.398c-2.828-3.619-4.864-7.891-6.107-12.811
					c-1.247-4.92-1.867-10.375-1.867-16.37V363.85h15.777v46.144c0,10.746,1.697,18.436,5.09,23.073
					c3.392,4.639,9.103,6.957,17.134,6.957c1.696,0,3.448-0.059,5.259-0.172c1.809-0.111,3.505-0.254,5.09-0.424
					c1.583-0.17,3.024-0.34,4.325-0.508c1.299-0.17,2.231-0.365,2.8-0.594V363.85h15.776v85.671H383.062z"/>
				<path fill="#FFFFFF" d="M421.569,367.751c1.921-1.242,4.835-2.544,8.737-3.901c3.901-1.356,8.396-2.034,13.485-2.034
					c6.334,0,11.961,1.131,16.881,3.393c4.919,2.264,9.075,5.429,12.468,9.501c3.395,4.071,5.965,8.935,7.72,14.589
					c1.753,5.656,2.63,11.875,2.63,18.66c0,7.125-1.048,13.545-3.139,19.256c-2.095,5.711-5.063,10.545-8.907,14.504
					c-3.847,3.959-8.481,7.014-13.911,9.162c-5.428,2.146-11.536,3.221-18.321,3.221c-7.354,0-13.855-0.508-19.51-1.525
					c-5.656-1.018-10.292-2.035-13.91-3.053v-126.39l15.776-2.713L421.569,367.751L421.569,367.751z M421.569,438.326
					c1.583,0.453,3.817,0.877,6.701,1.27c2.884,0.396,6.473,0.598,10.771,0.598c8.482,0,15.269-2.803,20.357-8.398
					c5.089-5.6,7.634-13.544,7.634-23.836c0-4.521-0.454-8.764-1.356-12.725c-0.907-3.957-2.375-7.378-4.411-10.263
					s-4.666-5.146-7.89-6.787c-3.224-1.638-7.099-2.459-11.62-2.459c-4.301,0-8.258,0.736-11.875,2.205
					c-3.621,1.473-6.392,2.999-8.312,4.58L421.569,438.326L421.569,438.326z"/>
				<path fill="#FFFFFF" d="M571.535,449.521c-3.623,0.906-8.397,1.865-14.337,2.885c-5.938,1.018-12.808,1.525-20.61,1.525
					c-6.786,0-12.499-0.99-17.136-2.967c-4.64-1.979-8.372-4.779-11.195-8.398c-2.828-3.619-4.863-7.891-6.107-12.811
					c-1.246-4.92-1.867-10.375-1.867-16.37V363.85h15.778v46.144c0,10.746,1.696,18.436,5.089,23.073
					c3.394,4.639,9.104,6.957,17.135,6.957c1.696,0,3.449-0.059,5.259-0.172c1.809-0.111,3.506-0.254,5.09-0.424
					c1.583-0.17,3.024-0.34,4.326-0.508c1.299-0.17,2.231-0.365,2.799-0.594V363.85h15.778L571.535,449.521L571.535,449.521z"/>
				<path fill="#FFFFFF" d="M594.264,366.395c3.62-0.903,8.424-1.866,14.421-2.885c5.994-1.018,12.893-1.525,20.697-1.525
					c7.012,0,12.834,0.99,17.473,2.968c4.637,1.979,8.34,4.75,11.111,8.312c2.771,3.563,4.721,7.834,5.854,12.81
					c1.129,4.978,1.697,10.462,1.697,16.456v49.536H649.74V405.92c0-5.426-0.369-10.062-1.104-13.908
					c-0.736-3.844-1.949-6.956-3.646-9.33c-1.696-2.377-3.959-4.1-6.785-5.176c-2.829-1.074-6.336-1.61-10.518-1.61
					c-1.697,0-3.453,0.059-5.26,0.169c-1.812,0.113-3.535,0.256-5.174,0.426c-1.642,0.169-3.113,0.368-4.41,0.593
					c-1.304,0.229-2.236,0.398-2.802,0.509v74.474h-15.778L594.264,366.395L594.264,366.395z"/>
				<path fill="#FFFFFF" d="M701.99,363.85h33.42v13.232h-33.42v40.715c0,4.412,0.338,8.06,1.019,10.943
					c0.678,2.885,1.694,5.145,3.053,6.785c1.357,1.643,3.053,2.801,5.09,3.479c2.035,0.678,4.41,1.02,7.125,1.02
					c4.861,0,8.709-0.537,11.535-1.613c2.824-1.072,4.75-1.836,5.768-2.289l3.394,12.895c-1.584,0.791-4.385,1.811-8.396,3.053
					c-4.016,1.242-8.565,1.865-13.657,1.865c-5.992,0-10.939-0.762-14.843-2.291c-3.901-1.525-7.041-3.814-9.414-6.867
					c-2.377-3.057-4.047-6.814-5.006-11.283c-0.963-4.467-1.442-9.643-1.442-15.524v-78.715l15.778-2.714v27.311H701.99z"/>
				<path fill="#FFFFFF" d="M821.247,449.521c-3.618,0.906-8.397,1.865-14.334,2.885c-5.938,1.018-12.809,1.525-20.612,1.525
					c-6.785,0-12.498-0.99-17.133-2.967c-4.642-1.979-8.371-4.779-11.197-8.398c-2.828-3.619-4.863-7.891-6.107-12.811
					c-1.246-4.92-1.867-10.375-1.867-16.37V363.85h15.779v46.144c0,10.746,1.695,18.436,5.088,23.073
					c3.394,4.639,9.104,6.957,17.135,6.957c1.697,0,3.447-0.059,5.261-0.172c1.807-0.111,3.504-0.254,5.088-0.424
					s3.024-0.34,4.326-0.508c1.299-0.17,2.231-0.365,2.799-0.594V363.85h15.776L821.247,449.521L821.247,449.521z"/>
			</g>
		</g>
	</g>
	<g>
		<path fill="#FFFFFF" d="M344.307,502.027c0,3.102-0.488,5.801-1.463,8.098c-0.975,2.301-2.343,4.215-4.1,5.748
			c-1.761,1.531-3.859,2.684-6.297,3.447c-2.438,0.766-5.12,1.148-8.046,1.148c-1.462,0-2.993-0.078-4.597-0.234
			s-3.013-0.395-4.232-0.705v-34.9c1.22-0.348,2.629-0.6,4.232-0.756c1.604-0.158,3.135-0.236,4.597-0.236
			c2.926,0,5.608,0.385,8.046,1.15s4.536,1.914,6.297,3.447c1.757,1.533,3.125,3.449,4.1,5.746
			C343.819,496.279,344.307,498.962,344.307,502.027z M319.125,517.021c0.21,0.035,0.739,0.105,1.595,0.209
			c0.853,0.104,2.22,0.156,4.101,0.156c2.611,0,4.895-0.355,6.845-1.07c1.951-0.711,3.587-1.732,4.912-3.057
			c1.321-1.322,2.315-2.934,2.978-4.832c0.66-1.896,0.992-4.031,0.992-6.4c0-2.367-0.333-4.492-0.992-6.373
			c-0.662-1.881-1.656-3.482-2.978-4.807c-1.324-1.324-2.961-2.344-4.912-3.059c-1.95-0.713-4.232-1.07-6.845-1.07
			c-1.881,0-3.247,0.055-4.101,0.158s-1.385,0.174-1.595,0.207V517.021z"/>
		<path fill="#FFFFFF" d="M349.678,506.625c0-2.369,0.339-4.432,1.019-6.189c0.679-1.76,1.568-3.23,2.664-4.418
			c1.099-1.182,2.353-2.061,3.763-2.637c1.41-0.574,2.864-0.861,4.362-0.861c3.309,0,5.946,1.078,7.915,3.236
			c1.967,2.164,2.952,5.488,2.952,9.98c0,0.279-0.009,0.559-0.025,0.836c-0.019,0.279-0.045,0.541-0.078,0.785h-18.966
			c0.104,3.307,0.923,5.852,2.457,7.627c1.53,1.775,3.97,2.664,7.312,2.664c1.848,0,3.31-0.174,4.391-0.521
			c1.079-0.348,1.861-0.645,2.352-0.889l0.626,2.926c-0.49,0.279-1.404,0.609-2.743,0.992c-1.342,0.383-2.917,0.574-4.729,0.574
			c-2.369,0-4.389-0.35-6.062-1.045c-1.672-0.695-3.048-1.672-4.127-2.926c-1.08-1.254-1.863-2.744-2.351-4.467
			C349.922,510.568,349.678,508.681,349.678,506.625z M368.852,504.482c-0.068-2.82-0.729-5.016-1.983-6.58
			c-1.255-1.57-3.03-2.355-5.33-2.355c-1.221,0-2.308,0.244-3.266,0.732c-0.958,0.486-1.794,1.143-2.507,1.959
			c-0.715,0.818-1.271,1.77-1.672,2.848c-0.402,1.08-0.637,2.211-0.707,3.396H368.852L368.852,504.482z"/>
		<path fill="#FFFFFF" d="M385.507,520.626c-1.149-0.035-2.151-0.184-3.004-0.445c-0.854-0.26-1.566-0.658-2.142-1.199
			c-0.574-0.539-1.012-1.236-1.307-2.092c-0.297-0.852-0.444-1.924-0.444-3.213v-33.436l3.397-0.629v33.961
			c0,0.836,0.078,1.508,0.236,2.012c0.155,0.506,0.391,0.904,0.703,1.201c0.313,0.295,0.724,0.514,1.229,0.652
			c0.504,0.141,1.105,0.262,1.803,0.367L385.507,520.626z"/>
		<path fill="#FFFFFF" d="M395.365,484.994c0,0.803-0.243,1.438-0.729,1.908c-0.489,0.471-1.081,0.705-1.777,0.705
			s-1.289-0.234-1.774-0.705c-0.488-0.471-0.732-1.105-0.732-1.908c0-0.801,0.244-1.436,0.732-1.906
			c0.485-0.469,1.078-0.705,1.774-0.705c0.697,0,1.289,0.236,1.777,0.705C395.122,483.558,395.365,484.193,395.365,484.994z
			 M394.581,520.156h-3.396v-27.012h3.396V520.156z"/>
		<path fill="#FFFFFF" d="M411.191,516.5c0.733-1.496,1.483-3.213,2.253-5.146c0.769-1.932,1.51-3.934,2.228-6.008
			c0.716-2.072,1.38-4.162,1.991-6.27c0.61-2.107,1.126-4.084,1.546-5.932h3.396c-0.631,2.475-1.331,4.912-2.103,7.314
			c-0.772,2.402-1.586,4.756-2.444,7.053c-0.86,2.301-1.754,4.514-2.682,6.637c-0.931,2.125-1.831,4.127-2.708,6.008h-3.166
			c-0.911-1.881-1.824-3.883-2.734-6.008c-0.912-2.123-1.797-4.336-2.655-6.637c-0.858-2.297-1.674-4.648-2.445-7.053
			c-0.772-2.402-1.473-4.842-2.103-7.314h3.604c0.418,1.848,0.936,3.822,1.545,5.932c0.612,2.105,1.274,4.195,1.992,6.27
			c0.715,2.074,1.458,4.076,2.229,6.008C409.706,513.287,410.457,515.003,411.191,516.5z"/>
		<path fill="#FFFFFF" d="M425.339,506.625c0-2.369,0.34-4.432,1.019-6.189c0.679-1.76,1.567-3.23,2.664-4.418
			c1.097-1.182,2.351-2.061,3.763-2.637c1.411-0.574,2.864-0.861,4.362-0.861c3.308,0,5.947,1.078,7.915,3.236
			c1.968,2.164,2.953,5.488,2.953,9.98c0,0.279-0.01,0.559-0.027,0.836c-0.018,0.279-0.044,0.541-0.078,0.785h-18.963
			c0.104,3.307,0.921,5.852,2.455,7.627c1.532,1.775,3.97,2.664,7.314,2.664c1.845,0,3.309-0.174,4.389-0.521
			c1.079-0.348,1.862-0.645,2.351-0.889l0.627,2.926c-0.488,0.279-1.402,0.609-2.742,0.992c-1.344,0.383-2.918,0.574-4.729,0.574
			c-2.37,0-4.389-0.35-6.06-1.045c-1.672-0.695-3.048-1.672-4.127-2.926c-1.082-1.254-1.864-2.744-2.352-4.467
			C425.582,510.568,425.339,508.681,425.339,506.625z M444.513,504.482c-0.071-2.82-0.73-5.016-1.985-6.58
			c-1.255-1.57-3.031-2.355-5.33-2.355c-1.219,0-2.307,0.244-3.265,0.732c-0.959,0.486-1.794,1.143-2.509,1.959
			c-0.714,0.818-1.271,1.77-1.671,2.848c-0.4,1.08-0.637,2.211-0.705,3.396H444.513L444.513,504.482z"/>
		<path fill="#FFFFFF" d="M463.592,492.623c1.114,0,2.168,0.088,3.162,0.26c0.989,0.178,1.678,0.352,2.062,0.523l-0.679,2.926
			c-0.278-0.139-0.844-0.287-1.697-0.443s-1.977-0.234-3.37-0.234c-1.463,0-2.638,0.104-3.526,0.312s-1.472,0.383-1.75,0.521v23.668
			h-3.396v-25.758c0.87-0.383,2.071-0.773,3.605-1.176C459.533,492.824,461.398,492.623,463.592,492.623z"/>
		<path fill="#FFFFFF" d="M471.041,506.625c0-2.369,0.341-4.432,1.02-6.189c0.681-1.76,1.568-3.23,2.665-4.418
			c1.098-1.182,2.352-2.061,3.762-2.637c1.41-0.574,2.865-0.861,4.362-0.861c3.31,0,5.948,1.078,7.916,3.236
			c1.967,2.164,2.95,5.488,2.95,9.98c0,0.279-0.009,0.559-0.024,0.836c-0.019,0.279-0.045,0.541-0.079,0.785h-18.965
			c0.104,3.307,0.922,5.852,2.455,7.627s3.971,2.664,7.313,2.664c1.847,0,3.311-0.174,4.39-0.521s1.863-0.645,2.352-0.889
			l0.627,2.926c-0.488,0.279-1.401,0.609-2.741,0.992c-1.343,0.383-2.918,0.574-4.729,0.574c-2.369,0-4.39-0.35-6.061-1.045
			c-1.674-0.695-3.05-1.672-4.13-2.926c-1.077-1.254-1.862-2.744-2.351-4.467C471.285,510.568,471.041,508.681,471.041,506.625z
			 M490.216,504.482c-0.069-2.82-0.731-5.016-1.985-6.58c-1.254-1.57-3.031-2.355-5.33-2.355c-1.219,0-2.307,0.244-3.266,0.732
			c-0.957,0.486-1.793,1.143-2.506,1.959c-0.716,0.818-1.273,1.77-1.675,2.848c-0.4,1.08-0.634,2.211-0.704,3.396H490.216
			L490.216,504.482z"/>
		<path fill="#FFFFFF" d="M521.992,519.32c-1.012,0.35-2.3,0.68-3.867,0.992c-1.566,0.312-3.554,0.471-5.956,0.471
			c-1.984,0-3.787-0.322-5.406-0.967s-3.013-1.574-4.181-2.797c-1.168-1.217-2.073-2.695-2.717-4.438
			c-0.645-1.742-0.966-3.709-0.966-5.902c0-2.057,0.27-3.949,0.811-5.672c0.538-1.723,1.33-3.211,2.375-4.467
			c1.047-1.254,2.325-2.23,3.842-2.926c1.516-0.695,3.247-1.043,5.198-1.043c1.775,0,3.316,0.252,4.623,0.756
			c1.308,0.506,2.255,0.982,2.848,1.438v-14.523l3.396-0.627V519.32z M518.595,498.058c-0.313-0.244-0.706-0.506-1.175-0.783
			c-0.471-0.279-1.021-0.541-1.646-0.785c-0.627-0.242-1.307-0.445-2.037-0.602c-0.731-0.156-1.497-0.234-2.299-0.234
			c-1.672,0-3.073,0.297-4.205,0.887c-1.133,0.594-2.047,1.387-2.744,2.379c-0.696,0.992-1.201,2.16-1.514,3.498
			c-0.314,1.344-0.471,2.764-0.471,4.262c0,3.553,0.888,6.277,2.664,8.176s4.127,2.848,7.053,2.848c1.672,0,3.021-0.08,4.05-0.234
			c1.026-0.156,1.802-0.322,2.324-0.498V498.058z"/>
		<path fill="#FFFFFF" d="M546.283,494.765c0.595-0.453,1.543-0.932,2.849-1.438c1.309-0.504,2.848-0.756,4.625-0.756
			c1.948,0,3.683,0.348,5.196,1.043c1.518,0.697,2.795,1.672,3.841,2.926c1.047,1.256,1.838,2.744,2.378,4.467
			c0.54,1.725,0.811,3.615,0.811,5.672c0,2.193-0.323,4.16-0.968,5.902c-0.644,1.742-1.55,3.223-2.715,4.439
			c-1.169,1.221-2.562,2.15-4.181,2.795c-1.621,0.645-3.424,0.967-5.408,0.967c-2.403,0-4.389-0.156-5.956-0.471
			c-1.566-0.312-2.855-0.645-3.865-0.992v-39.078l3.395-0.629L546.283,494.765L546.283,494.765z M546.283,516.968
			c0.523,0.176,1.298,0.34,2.326,0.498c1.027,0.154,2.377,0.234,4.049,0.234c2.927,0,5.277-0.949,7.054-2.848
			s2.666-4.625,2.666-8.176c0-1.498-0.158-2.918-0.472-4.262c-0.313-1.338-0.818-2.506-1.515-3.498
			c-0.698-0.992-1.612-1.785-2.743-2.379c-1.133-0.59-2.535-0.887-4.207-0.887c-0.801,0-1.564,0.078-2.298,0.234
			c-0.731,0.156-1.411,0.357-2.038,0.602s-1.176,0.506-1.645,0.785c-0.472,0.277-0.863,0.539-1.179,0.783L546.283,516.968
			L546.283,516.968z"/>
		<path fill="#FFFFFF" d="M579.554,520.73c-1.134-2.129-2.235-4.346-3.3-6.643c-1.067-2.297-2.063-4.621-2.99-6.969
			c-0.927-2.352-1.773-4.703-2.543-7.049c-0.771-2.352-1.43-4.66-1.98-6.928h3.604c0.383,1.674,0.869,3.477,1.461,5.41
			s1.261,3.926,2.009,5.982c0.748,2.055,1.573,4.162,2.479,6.322c0.901,2.158,1.889,4.285,2.959,6.369
			c0.775-2.148,1.463-4.184,2.062-6.098c0.599-1.912,1.153-3.818,1.663-5.715c0.512-1.898,1.004-3.838,1.479-5.822
			c0.475-1.982,0.96-4.133,1.455-6.449h3.397c-1.134,5.057-2.408,9.971-3.822,14.748c-1.414,4.775-2.959,9.143-4.635,13.1
			c-0.662,1.566-1.342,2.916-2.042,4.051c-0.699,1.131-1.479,2.061-2.334,2.793c-0.857,0.73-1.854,1.271-2.99,1.621
			c-1.138,0.348-2.476,0.521-4.014,0.521c-0.875,0-1.671-0.104-2.388-0.312c-0.718-0.209-1.163-0.365-1.339-0.471l0.681-2.82
			c0.141,0.104,0.532,0.252,1.18,0.441c0.646,0.191,1.316,0.287,2.016,0.287c0.978,0,1.858-0.104,2.646-0.311
			c0.784-0.207,1.491-0.566,2.12-1.07c0.629-0.506,1.195-1.16,1.702-1.963C578.596,522.958,579.082,521.951,579.554,520.73z"/>
		<path fill="#FFFFFF" d="M624.12,520.941c-2.335,0-4.502-0.42-6.503-1.256c-2.005-0.836-3.746-2.055-5.226-3.656
			c-1.482-1.602-2.648-3.578-3.503-5.932c-0.854-2.35-1.279-5.041-1.279-8.07s0.461-5.723,1.385-8.072
			c0.922-2.35,2.151-4.326,3.686-5.93c1.532-1.602,3.309-2.812,5.329-3.631s4.127-1.229,6.321-1.229
			c1.357,0,2.595,0.088,3.709,0.262s2.09,0.393,2.927,0.652c0.836,0.262,1.549,0.521,2.142,0.783
			c0.592,0.262,1.045,0.496,1.357,0.705l-1.147,3.084c-0.871-0.523-1.977-1.037-3.317-1.541c-1.344-0.506-3.005-0.76-4.99-0.76
			c-2.264,0-4.239,0.385-5.93,1.15c-1.689,0.764-3.108,1.846-4.259,3.24c-1.148,1.393-2.012,3.047-2.586,4.961
			c-0.575,1.918-0.86,4.041-0.86,6.375c0,2.402,0.285,4.572,0.86,6.506c0.574,1.932,1.419,3.578,2.533,4.936
			c1.114,1.359,2.481,2.404,4.104,3.135c1.618,0.73,3.474,1.098,5.564,1.098c2.297,0,4.22-0.217,5.771-0.652
			c1.549-0.436,2.725-0.879,3.525-1.332l0.992,3.029c-0.244,0.176-0.662,0.375-1.254,0.602c-0.593,0.227-1.341,0.463-2.246,0.703
			c-0.907,0.244-1.95,0.443-3.133,0.604C626.906,520.861,625.582,520.941,624.12,520.941z"/>
		<path fill="#FFFFFF" d="M648.698,492.519c1.774,0,3.28,0.254,4.519,0.758c1.235,0.506,2.237,1.201,3.005,2.088
			c0.766,0.891,1.322,1.943,1.671,3.164c0.348,1.219,0.522,2.541,0.522,3.969v17.033c-0.348,0.104-0.854,0.217-1.517,0.338
			c-0.66,0.123-1.428,0.254-2.298,0.393c-0.871,0.141-1.838,0.252-2.9,0.34c-1.062,0.086-2.148,0.131-3.264,0.131
			c-1.429,0-2.743-0.156-3.944-0.471c-1.202-0.312-2.249-0.809-3.135-1.488c-0.888-0.68-1.586-1.551-2.091-2.611
			s-0.759-2.359-0.759-3.893c0-1.463,0.276-2.717,0.837-3.762c0.558-1.045,1.342-1.908,2.353-2.586
			c1.007-0.682,2.21-1.178,3.604-1.49c1.394-0.314,2.908-0.471,4.545-0.471c0.487,0,1.001,0.027,1.542,0.078
			c0.538,0.053,1.061,0.123,1.567,0.211c0.504,0.086,0.938,0.174,1.307,0.26c0.365,0.088,0.616,0.166,0.758,0.234v-1.674
			c0-0.938-0.07-1.852-0.211-2.74c-0.139-0.889-0.443-1.688-0.914-2.402c-0.47-0.715-1.132-1.289-1.984-1.725
			c-0.854-0.438-1.977-0.654-3.369-0.654c-1.984,0-3.468,0.141-4.441,0.42s-1.689,0.504-2.142,0.678l-0.472-2.979
			c0.594-0.279,1.506-0.539,2.744-0.783C645.467,492.64,646.955,492.519,648.698,492.519z M649.012,517.701
			c1.32,0,2.479-0.045,3.474-0.131c0.992-0.086,1.836-0.201,2.534-0.34v-9.508c-0.384-0.174-0.993-0.355-1.83-0.549
			c-0.835-0.189-1.986-0.289-3.449-0.289c-0.834,0-1.705,0.062-2.61,0.186c-0.905,0.121-1.742,0.383-2.508,0.783
			c-0.767,0.398-1.395,0.949-1.881,1.645c-0.487,0.697-0.73,1.621-0.73,2.77c0,1.012,0.165,1.863,0.495,2.561
			c0.331,0.699,0.801,1.256,1.41,1.672c0.61,0.418,1.343,0.723,2.194,0.914C646.964,517.605,647.931,517.701,649.012,517.701z"/>
		<path fill="#FFFFFF" d="M666.169,494.085c1.01-0.277,2.366-0.592,4.071-0.941c1.707-0.346,3.796-0.521,6.271-0.521
			c2.054,0,3.769,0.297,5.146,0.889c1.375,0.594,2.475,1.439,3.29,2.533c0.818,1.098,1.403,2.414,1.751,3.945
			c0.35,1.533,0.522,3.223,0.522,5.066v15.1h-3.395v-14c0-1.914-0.133-3.537-0.394-4.859s-0.697-2.402-1.306-3.238
			c-0.609-0.836-1.41-1.438-2.403-1.803c-0.994-0.367-2.239-0.549-3.736-0.549c-1.602,0-2.985,0.086-4.154,0.262
			c-1.167,0.172-1.923,0.33-2.271,0.471v23.719h-3.396v-26.072H666.169z"/>
		<path fill="#FFFFFF" d="M718.125,506.679c0,2.123-0.307,4.057-0.915,5.797c-0.609,1.742-1.462,3.225-2.561,4.439
			c-1.099,1.221-2.396,2.168-3.894,2.85c-1.497,0.68-3.152,1.018-4.964,1.018s-3.466-0.338-4.962-1.018
			c-1.498-0.682-2.797-1.629-3.894-2.85c-1.097-1.217-1.95-2.697-2.559-4.439c-0.611-1.74-0.916-3.674-0.916-5.797
			c0-2.125,0.305-4.061,0.916-5.801c0.607-1.742,1.462-3.229,2.559-4.469c1.097-1.234,2.396-2.193,3.894-2.873
			c1.496-0.68,3.15-1.02,4.962-1.02s3.467,0.34,4.964,1.02c1.498,0.68,2.795,1.639,3.894,2.873c1.099,1.238,1.95,2.727,2.561,4.469
			C717.819,502.619,718.125,504.554,718.125,506.679z M714.52,506.679c0-3.383-0.784-6.07-2.351-8.072
			c-1.568-2.006-3.692-3.008-6.376-3.008c-2.682,0-4.807,1.002-6.373,3.008c-1.567,2.002-2.352,4.689-2.352,8.072
			c0,3.377,0.783,6.059,2.352,8.043c1.566,1.984,3.691,2.98,6.373,2.98c2.684,0,4.808-0.996,6.376-2.98
			C713.735,512.738,714.52,510.056,714.52,506.679z"/>
		<path fill="#FFFFFF" d="M724.654,494.085c1.011-0.277,2.367-0.592,4.075-0.941c1.705-0.346,3.795-0.521,6.269-0.521
			c2.056,0,3.771,0.297,5.146,0.889c1.376,0.594,2.474,1.439,3.292,2.533c0.818,1.098,1.404,2.414,1.751,3.945
			c0.348,1.533,0.521,3.223,0.521,5.066v15.1h-3.396v-14c0-1.914-0.13-3.537-0.392-4.859c-0.263-1.322-0.698-2.402-1.308-3.238
			c-0.607-0.836-1.41-1.438-2.403-1.803c-0.991-0.367-2.236-0.549-3.734-0.549c-1.603,0-2.985,0.086-4.153,0.262
			c-1.167,0.172-1.925,0.33-2.271,0.471v23.719h-3.396V494.085L724.654,494.085z"/>
		<path fill="#FFFFFF" d="M757.507,484.994c0,0.803-0.245,1.438-0.732,1.908c-0.489,0.471-1.08,0.705-1.776,0.705
			s-1.287-0.234-1.774-0.705c-0.489-0.471-0.732-1.105-0.732-1.908c0-0.801,0.243-1.436,0.732-1.906
			c0.487-0.469,1.078-0.705,1.774-0.705s1.287,0.236,1.776,0.705C757.262,483.558,757.507,484.193,757.507,484.994z
			 M756.724,520.156h-3.396v-27.012h3.396V520.156z"/>
		<path fill="#FFFFFF" d="M775.9,520.73c-2.089,0-3.938-0.33-5.538-0.99c-1.603-0.662-2.934-1.611-3.996-2.852
			c-1.062-1.232-1.872-2.715-2.43-4.438c-0.557-1.727-0.836-3.631-0.836-5.723c0-2.123,0.287-4.059,0.863-5.801
			c0.574-1.74,1.399-3.236,2.479-4.492c1.079-1.252,2.385-2.219,3.918-2.898c1.532-0.68,3.257-1.02,5.173-1.02
			c1.462,0,2.831,0.121,4.101,0.365c1.271,0.244,2.257,0.561,2.953,0.941l-0.889,2.924c-0.696-0.348-1.481-0.627-2.352-0.834
			c-0.871-0.209-2.036-0.314-3.501-0.314c-2.996,0-5.268,0.969-6.816,2.9c-1.549,1.934-2.325,4.676-2.325,8.229
			c0,1.605,0.176,3.074,0.522,4.416c0.349,1.342,0.914,2.49,1.697,3.447c0.783,0.959,1.794,1.707,3.029,2.246
			s2.743,0.811,4.52,0.811c1.463,0,2.69-0.164,3.685-0.496c0.992-0.33,1.716-0.619,2.168-0.861l0.73,2.926
			c-0.627,0.35-1.611,0.688-2.951,1.02C778.767,520.564,777.365,520.73,775.9,520.73z"/>
		<path fill="#FFFFFF" d="M796.736,492.519c1.778,0,3.282,0.254,4.52,0.758c1.236,0.506,2.237,1.201,3.005,2.088
			c0.767,0.891,1.322,1.943,1.673,3.164c0.348,1.219,0.521,2.541,0.521,3.969v17.033c-0.348,0.104-0.854,0.217-1.516,0.338
			c-0.661,0.123-1.429,0.254-2.299,0.393c-0.87,0.141-1.837,0.252-2.898,0.34c-1.063,0.086-2.152,0.131-3.267,0.131
			c-1.428,0-2.742-0.156-3.943-0.471c-1.202-0.312-2.249-0.809-3.138-1.488c-0.885-0.68-1.582-1.551-2.087-2.611
			s-0.759-2.359-0.759-3.893c0-1.463,0.278-2.717,0.837-3.762c0.557-1.045,1.34-1.908,2.35-2.586c1.01-0.682,2.213-1.178,3.605-1.49
			c1.394-0.314,2.907-0.471,4.545-0.471c0.488,0,1.003,0.027,1.542,0.078c0.54,0.053,1.062,0.123,1.566,0.211
			c0.505,0.086,0.94,0.174,1.308,0.26c0.364,0.088,0.615,0.166,0.757,0.234v-1.674c0-0.938-0.07-1.852-0.208-2.74
			c-0.141-0.889-0.444-1.688-0.915-2.402c-0.47-0.715-1.132-1.289-1.984-1.725c-0.854-0.438-1.979-0.654-3.372-0.654
			c-1.982,0-3.466,0.141-4.438,0.42c-0.979,0.279-1.691,0.504-2.144,0.678l-0.471-2.979c0.593-0.279,1.506-0.539,2.745-0.783
			C793.505,492.64,794.994,492.519,796.736,492.519z M797.05,517.701c1.323,0,2.481-0.045,3.475-0.131
			c0.992-0.086,1.838-0.201,2.533-0.34v-9.508c-0.382-0.174-0.991-0.355-1.829-0.549c-0.835-0.189-1.983-0.289-3.447-0.289
			c-0.837,0-1.707,0.062-2.612,0.186c-0.906,0.121-1.742,0.383-2.507,0.783c-0.767,0.398-1.396,0.949-1.883,1.645
			c-0.487,0.697-0.731,1.621-0.731,2.77c0,1.012,0.167,1.863,0.497,2.561c0.331,0.699,0.801,1.256,1.412,1.672
			c0.609,0.418,1.34,0.723,2.193,0.914C795.003,517.605,795.969,517.701,797.05,517.701z"/>
		<path fill="#FFFFFF" d="M820.988,520.626c-1.147-0.035-2.15-0.184-3.005-0.445c-0.853-0.26-1.566-0.658-2.143-1.199
			c-0.573-0.539-1.013-1.236-1.306-2.092c-0.296-0.852-0.444-1.924-0.444-3.213v-33.436l3.396-0.629v33.961
			c0,0.836,0.079,1.508,0.236,2.012c0.157,0.506,0.393,0.904,0.706,1.201c0.312,0.295,0.722,0.514,1.228,0.652
			c0.505,0.141,1.104,0.262,1.804,0.367L820.988,520.626z"/>
	</g>
</g>
</svg>
