<?xml version="1.0" encoding="utf-8"?>
<!-- Generator: Adobe Illustrator 16.0.4, SVG Export Plug-In . SVG Version: 6.00 Build 0)  -->
<!DOCTYPE svg PUBLIC "-//W3C//DTD SVG 1.1//EN" "http://www.w3.org/Graphics/SVG/1.1/DTD/svg11.dtd">
<svg version="1.1" id="supported__x5F__white" xmlns="http://www.w3.org/2000/svg" xmlns:xlink="http://www.w3.org/1999/xlink"
	 x="0px" y="0px" width="425.197px" height="209.764px" viewBox="0 0 425.197 209.764" enable-background="new 0 0 425.197 209.764"
	 xml:space="preserve">
<g>
</g>
<g>
</g>
<g>
</g>
<g>
</g>
<g>
	<g>
		<circle fill="#FFFFFF" cx="345.869" cy="71.951" r="16.966"/>
		<path d="M335.287,69.912c-1.127,0-2.036,0.912-2.036,2.039c0,1.124,0.909,2.037,2.036,2.037c1.128,0,2.039-0.913,2.039-2.037
			C337.326,70.824,336.415,69.912,335.287,69.912z M349.842,79.178c-0.976,0.56-1.308,1.807-0.747,2.78
			c0.563,0.976,1.809,1.309,2.784,0.748c0.975-0.563,1.31-1.809,0.747-2.784C352.062,78.948,350.815,78.613,349.842,79.178z
			 M339.717,71.951c0-2.016,0.998-3.796,2.529-4.873l-1.488-2.497c-1.784,1.191-3.112,3.013-3.664,5.148
			c0.646,0.525,1.055,1.324,1.055,2.222c0,0.894-0.408,1.692-1.055,2.219c0.552,2.134,1.88,3.955,3.664,5.147l1.488-2.496
			C340.715,75.745,339.717,73.965,339.717,71.951z M345.669,65.995c3.112,0,5.663,2.385,5.931,5.429l2.905-0.046
			c-0.144-2.244-1.124-4.26-2.631-5.742c-0.776,0.291-1.672,0.249-2.445-0.2c-0.773-0.446-1.26-1.199-1.394-2.02
			c-0.754-0.207-1.547-0.321-2.366-0.321c-1.408,0-2.741,0.332-3.922,0.917l1.415,2.537
			C343.924,66.194,344.774,65.995,345.669,65.995z M345.669,77.903c-0.895,0-1.745-0.198-2.507-0.554l-1.415,2.538
			c1.181,0.587,2.514,0.916,3.922,0.916c0.819,0,1.612-0.111,2.366-0.321c0.134-0.82,0.62-1.572,1.394-2.021
			c0.775-0.448,1.669-0.49,2.445-0.196c1.507-1.483,2.487-3.5,2.631-5.746l-2.905-0.041
			C351.332,75.521,348.781,77.903,345.669,77.903z M349.842,64.723c0.974,0.562,2.221,0.229,2.782-0.747
			c0.563-0.972,0.229-2.219-0.745-2.781c-0.976-0.563-2.221-0.229-2.784,0.745C348.534,62.914,348.866,64.161,349.842,64.723z"/>
		<g>
			<g>
				<g>
					<path fill="#FFFFFF" d="M113.299,116.465c-1.724,0.431-3.999,0.889-6.826,1.373c-2.828,0.484-6.099,0.727-9.815,0.727
						c-3.231,0-5.951-0.472-8.159-1.413c-2.208-0.941-3.986-2.275-5.332-3.999c-1.347-1.724-2.316-3.757-2.908-6.1
						c-0.593-2.342-0.889-4.94-0.889-7.794V75.669h7.513v21.972c0,5.117,0.808,8.779,2.424,10.987
						c1.615,2.209,4.334,3.313,8.159,3.313c0.808,0,1.642-0.028,2.504-0.082c0.861-0.053,1.668-0.121,2.423-0.202
						c0.753-0.081,1.44-0.162,2.06-0.241c0.618-0.081,1.062-0.175,1.333-0.283V75.669h7.513V116.465z"/>
					<path fill="#FFFFFF" d="M131.636,77.527c0.915-0.592,2.302-1.211,4.16-1.858s3.999-0.969,6.422-0.969
						c3.015,0,5.695,0.539,8.038,1.616c2.343,1.078,4.322,2.585,5.937,4.524c1.617,1.939,2.84,4.255,3.676,6.947
						c0.834,2.693,1.252,5.655,1.252,8.885c0,3.393-0.499,6.451-1.495,9.17c-0.998,2.719-2.411,5.021-4.242,6.906
						c-1.832,1.886-4.039,3.34-6.624,4.363c-2.585,1.022-5.493,1.534-8.725,1.534c-3.501,0-6.598-0.242-9.291-0.727
						c-2.693-0.485-4.901-0.97-6.624-1.454V56.28l7.513-1.292V77.527z M131.636,111.133c0.753,0.216,1.817,0.418,3.191,0.605
						c1.373,0.188,3.083,0.284,5.13,0.284c4.039,0,7.271-1.334,9.694-4c2.423-2.666,3.635-6.449,3.635-11.35
						c0-2.153-0.216-4.173-0.646-6.06c-0.432-1.884-1.131-3.513-2.1-4.886c-0.969-1.374-2.222-2.45-3.756-3.232
						c-1.535-0.78-3.381-1.171-5.534-1.171c-2.047,0-3.932,0.351-5.655,1.05c-1.724,0.701-3.043,1.428-3.958,2.181V111.133z"/>
					<path fill="#FFFFFF" d="M203.048,116.465c-1.725,0.431-3.999,0.889-6.827,1.373c-2.827,0.484-6.099,0.727-9.815,0.727
						c-3.231,0-5.952-0.472-8.159-1.413c-2.209-0.941-3.987-2.275-5.332-3.999c-1.347-1.724-2.316-3.757-2.908-6.1
						c-0.593-2.342-0.889-4.94-0.889-7.794V75.669h7.513v21.972c0,5.117,0.808,8.779,2.423,10.987
						c1.616,2.209,4.334,3.313,8.16,3.313c0.808,0,1.642-0.028,2.504-0.082c0.861-0.053,1.669-0.121,2.423-0.202
						c0.754-0.081,1.44-0.162,2.061-0.241c0.618-0.081,1.062-0.175,1.333-0.283V75.669h7.514V116.465z"/>
					<path fill="#FFFFFF" d="M213.872,76.881c1.723-0.431,4.011-0.889,6.867-1.374c2.854-0.484,6.139-0.727,9.855-0.727
						c3.339,0,6.111,0.472,8.32,1.413c2.208,0.943,3.971,2.262,5.291,3.959c1.319,1.697,2.248,3.73,2.787,6.099
						c0.538,2.37,0.809,4.982,0.809,7.836v23.587h-7.514V95.703c0-2.584-0.176-4.792-0.525-6.623
						c-0.351-1.83-0.928-3.312-1.736-4.442c-0.808-1.132-1.885-1.953-3.23-2.465c-1.348-0.512-3.018-0.768-5.009-0.768
						c-0.808,0-1.645,0.028-2.505,0.081c-0.861,0.055-1.683,0.122-2.463,0.203c-0.781,0.081-1.483,0.176-2.101,0.283
						c-0.619,0.108-1.063,0.189-1.333,0.242v35.463h-7.513V76.881z"/>
					<path fill="#FFFFFF" d="M265.168,75.669h15.915v6.301h-15.915v19.387c0,2.101,0.161,3.838,0.485,5.21
						c0.322,1.373,0.807,2.45,1.453,3.23c0.646,0.782,1.454,1.334,2.424,1.657c0.97,0.322,2.101,0.485,3.393,0.485
						c2.315,0,4.147-0.256,5.493-0.769c1.345-0.511,2.262-0.874,2.746-1.09l1.616,6.14c-0.755,0.377-2.088,0.862-3.999,1.453
						c-1.912,0.593-4.079,0.889-6.503,0.889c-2.854,0-5.21-0.362-7.068-1.091c-1.857-0.727-3.353-1.817-4.482-3.271
						c-1.132-1.455-1.927-3.245-2.384-5.373c-0.459-2.127-0.688-4.59-0.688-7.391V63.956l7.514-1.292V75.669z"/>
					<path fill="#FFFFFF" d="M321.958,116.465c-1.724,0.431-4,0.889-6.826,1.373c-2.828,0.484-6.1,0.727-9.815,0.727
						c-3.231,0-5.952-0.472-8.159-1.413c-2.209-0.941-3.985-2.275-5.331-3.999c-1.348-1.724-2.316-3.757-2.909-6.1
						c-0.593-2.342-0.889-4.94-0.889-7.794V75.669h7.514v21.972c0,5.117,0.808,8.779,2.423,10.987
						c1.615,2.209,4.335,3.313,8.159,3.313c0.809,0,1.642-0.028,2.505-0.082c0.86-0.053,1.669-0.121,2.423-0.202
						s1.44-0.162,2.061-0.241c0.618-0.081,1.062-0.175,1.332-0.283V75.669h7.514V116.465z"/>
				</g>
			</g>
		</g>
	</g>
	<g>
		<path fill="#FFFFFF" d="M94.844,141.467c0,1.477-0.232,2.762-0.697,3.855c-0.464,1.096-1.116,2.008-1.953,2.738
			c-0.838,0.729-1.837,1.277-2.998,1.641c-1.161,0.364-2.438,0.548-3.832,0.548c-0.696,0-1.426-0.037-2.189-0.112
			c-0.764-0.074-1.435-0.188-2.015-0.335v-16.62c0.581-0.165,1.251-0.285,2.015-0.359c0.763-0.075,1.493-0.112,2.189-0.112
			c1.393,0,2.671,0.183,3.832,0.548c1.161,0.364,2.16,0.911,2.998,1.642c0.837,0.729,1.488,1.642,1.953,2.736
			C94.612,138.729,94.844,140.008,94.844,141.467z M82.853,148.606c0.1,0.017,0.353,0.051,0.759,0.1
			c0.406,0.05,1.057,0.075,1.953,0.075c1.244,0,2.331-0.17,3.259-0.511c0.929-0.339,1.708-0.824,2.339-1.455
			c0.629-0.629,1.103-1.397,1.418-2.301c0.314-0.903,0.472-1.92,0.472-3.048s-0.158-2.14-0.472-3.035
			c-0.315-0.896-0.789-1.658-1.418-2.288c-0.631-0.631-1.41-1.116-2.339-1.457c-0.929-0.339-2.016-0.51-3.259-0.51
			c-0.896,0-1.546,0.026-1.953,0.075c-0.407,0.05-0.659,0.083-0.759,0.1V148.606z"/>
		<path fill="#FFFFFF" d="M97.402,143.656c0-1.128,0.162-2.11,0.485-2.947c0.323-0.838,0.747-1.539,1.269-2.104
			c0.522-0.563,1.12-0.982,1.792-1.256c0.671-0.273,1.364-0.41,2.078-0.41c1.575,0,2.832,0.514,3.769,1.541
			c0.936,1.03,1.406,2.613,1.406,4.753c0,0.133-0.004,0.266-0.012,0.397c-0.009,0.134-0.021,0.258-0.038,0.374h-9.031
			c0.05,1.575,0.439,2.786,1.17,3.632c0.729,0.847,1.891,1.269,3.482,1.269c0.88,0,1.576-0.082,2.091-0.248
			c0.514-0.166,0.886-0.308,1.12-0.424l0.298,1.394c-0.233,0.133-0.668,0.29-1.306,0.473c-0.639,0.182-1.389,0.273-2.251,0.273
			c-1.128,0-2.09-0.166-2.886-0.497s-1.452-0.797-1.965-1.393c-0.515-0.598-0.887-1.308-1.12-2.128
			C97.518,145.534,97.402,144.636,97.402,143.656z M106.532,142.636c-0.033-1.343-0.348-2.388-0.945-3.134
			c-0.597-0.747-1.442-1.12-2.538-1.12c-0.581,0-1.099,0.116-1.555,0.348c-0.457,0.232-0.854,0.545-1.194,0.934
			c-0.34,0.391-0.606,0.843-0.796,1.356c-0.192,0.514-0.303,1.052-0.336,1.616H106.532z"/>
		<path fill="#FFFFFF" d="M114.463,150.323c-0.547-0.017-1.024-0.087-1.431-0.211c-0.407-0.125-0.746-0.314-1.02-0.572
			c-0.274-0.257-0.482-0.589-0.623-0.996c-0.141-0.405-0.211-0.916-0.211-1.529v-15.922l1.618-0.299v16.171
			c0,0.398,0.037,0.719,0.112,0.958c0.074,0.241,0.186,0.432,0.335,0.572s0.344,0.245,0.585,0.311
			c0.24,0.067,0.526,0.125,0.858,0.176L114.463,150.323z"/>
		<path fill="#FFFFFF" d="M119.158,133.356c0,0.382-0.116,0.685-0.348,0.908c-0.232,0.224-0.515,0.335-0.846,0.335
			c-0.332,0-0.614-0.111-0.845-0.335c-0.233-0.224-0.349-0.526-0.349-0.908s0.116-0.684,0.349-0.908
			c0.231-0.223,0.513-0.336,0.845-0.336c0.332,0,0.614,0.113,0.846,0.336C119.042,132.673,119.158,132.975,119.158,133.356z
			 M118.784,150.1h-1.617v-12.862h1.617V150.1z"/>
		<path fill="#FFFFFF" d="M126.694,148.358c0.349-0.713,0.707-1.53,1.073-2.451c0.366-0.919,0.719-1.873,1.061-2.86
			c0.341-0.987,0.657-1.982,0.948-2.985c0.291-1.004,0.536-1.944,0.736-2.824h1.618c-0.301,1.178-0.634,2.34-1.001,3.483
			s-0.755,2.265-1.164,3.358c-0.409,1.095-0.835,2.148-1.277,3.16c-0.443,1.011-0.872,1.965-1.29,2.86h-1.507
			c-0.434-0.896-0.868-1.85-1.302-2.86c-0.435-1.012-0.856-2.065-1.265-3.16c-0.409-1.094-0.797-2.215-1.165-3.358
			c-0.367-1.144-0.701-2.306-1.001-3.483h1.716c0.2,0.88,0.446,1.82,0.736,2.824c0.292,1.003,0.607,1.998,0.948,2.985
			c0.341,0.987,0.695,1.941,1.062,2.86C125.986,146.828,126.344,147.646,126.694,148.358z"/>
		<path fill="#FFFFFF" d="M133.431,143.656c0-1.128,0.162-2.11,0.485-2.947c0.323-0.838,0.746-1.539,1.268-2.104
			c0.522-0.563,1.12-0.982,1.792-1.256c0.672-0.273,1.364-0.41,2.077-0.41c1.575,0,2.832,0.514,3.769,1.541
			c0.938,1.03,1.406,2.613,1.406,4.753c0,0.133-0.004,0.266-0.013,0.397c-0.009,0.134-0.021,0.258-0.038,0.374h-9.03
			c0.049,1.575,0.438,2.786,1.168,3.632c0.729,0.847,1.891,1.269,3.483,1.269c0.879,0,1.576-0.082,2.09-0.248
			c0.514-0.166,0.886-0.308,1.119-0.424l0.299,1.394c-0.233,0.133-0.668,0.29-1.306,0.473c-0.64,0.182-1.39,0.273-2.252,0.273
			c-1.128,0-2.09-0.166-2.886-0.497c-0.796-0.331-1.451-0.797-1.965-1.393c-0.515-0.598-0.888-1.308-1.12-2.128
			C133.547,145.534,133.431,144.636,133.431,143.656z M142.561,142.636c-0.034-1.343-0.348-2.388-0.945-3.134
			c-0.598-0.747-1.443-1.12-2.538-1.12c-0.581,0-1.099,0.116-1.555,0.348c-0.457,0.232-0.854,0.545-1.194,0.934
			c-0.34,0.391-0.605,0.843-0.796,1.356s-0.303,1.052-0.335,1.616H142.561z"/>
		<path fill="#FFFFFF" d="M151.646,136.988c0.531,0,1.032,0.042,1.506,0.124c0.472,0.084,0.799,0.167,0.981,0.249l-0.323,1.394
			c-0.132-0.065-0.401-0.137-0.808-0.212c-0.407-0.074-0.941-0.111-1.604-0.111c-0.697,0-1.256,0.049-1.68,0.149
			c-0.423,0.1-0.701,0.183-0.833,0.248V150.1h-1.617v-12.266c0.415-0.182,0.986-0.368,1.717-0.56
			C149.714,137.084,150.602,136.988,151.646,136.988z"/>
		<path fill="#FFFFFF" d="M155.194,143.656c0-1.128,0.162-2.11,0.485-2.947c0.324-0.838,0.747-1.539,1.269-2.104
			c0.523-0.563,1.12-0.982,1.792-1.256c0.671-0.273,1.364-0.41,2.077-0.41c1.576,0,2.833,0.514,3.77,1.541
			c0.937,1.03,1.405,2.613,1.405,4.753c0,0.133-0.004,0.266-0.012,0.397c-0.009,0.134-0.021,0.258-0.038,0.374h-9.031
			c0.049,1.575,0.439,2.786,1.169,3.632c0.73,0.847,1.891,1.269,3.483,1.269c0.879,0,1.576-0.082,2.09-0.248
			c0.514-0.166,0.887-0.308,1.12-0.424l0.298,1.394c-0.233,0.133-0.667,0.29-1.306,0.473c-0.639,0.182-1.39,0.273-2.251,0.273
			c-1.128,0-2.09-0.166-2.886-0.497c-0.796-0.331-1.452-0.797-1.966-1.393c-0.513-0.598-0.887-1.308-1.119-2.128
			C155.31,145.534,155.194,144.636,155.194,143.656z M164.325,142.636c-0.033-1.343-0.349-2.388-0.945-3.134
			c-0.597-0.747-1.444-1.12-2.539-1.12c-0.58,0-1.098,0.116-1.555,0.348c-0.456,0.232-0.854,0.545-1.193,0.934
			c-0.34,0.391-0.606,0.843-0.797,1.356c-0.19,0.514-0.302,1.052-0.335,1.616H164.325z"/>
		<path fill="#FFFFFF" d="M179.456,149.701c-0.482,0.167-1.095,0.324-1.842,0.473c-0.746,0.149-1.692,0.224-2.836,0.224
			c-0.945,0-1.803-0.153-2.574-0.46s-1.435-0.749-1.99-1.331c-0.556-0.579-0.988-1.284-1.294-2.114
			c-0.307-0.829-0.46-1.766-0.46-2.811c0-0.979,0.128-1.88,0.386-2.7c0.256-0.82,0.634-1.529,1.131-2.127
			c0.499-0.598,1.107-1.062,1.83-1.394c0.722-0.331,1.546-0.497,2.475-0.497c0.846,0,1.58,0.12,2.202,0.36
			c0.622,0.241,1.073,0.469,1.355,0.685v-6.916l1.618-0.299V149.701z M177.838,139.577c-0.149-0.116-0.336-0.241-0.56-0.374
			c-0.224-0.133-0.485-0.257-0.784-0.374c-0.298-0.115-0.622-0.211-0.97-0.286c-0.349-0.074-0.713-0.111-1.095-0.111
			c-0.796,0-1.463,0.141-2.002,0.423c-0.54,0.282-0.975,0.66-1.307,1.132c-0.332,0.473-0.572,1.029-0.721,1.666
			c-0.149,0.64-0.224,1.315-0.224,2.029c0,1.691,0.423,2.989,1.269,3.894c0.846,0.903,1.965,1.355,3.358,1.355
			c0.796,0,1.438-0.038,1.928-0.112c0.489-0.074,0.858-0.153,1.107-0.236V139.577z"/>
		<path fill="#FFFFFF" d="M191.023,138.009c0.283-0.216,0.734-0.443,1.356-0.685c0.623-0.24,1.356-0.36,2.202-0.36
			c0.928,0,1.754,0.166,2.475,0.497c0.722,0.332,1.331,0.796,1.828,1.394c0.499,0.598,0.875,1.307,1.132,2.127
			c0.257,0.82,0.386,1.722,0.386,2.7c0,1.045-0.154,1.981-0.461,2.811c-0.306,0.83-0.738,1.535-1.292,2.114
			c-0.557,0.582-1.22,1.024-1.991,1.331c-0.772,0.307-1.63,0.46-2.576,0.46c-1.145,0-2.089-0.074-2.836-0.224
			c-0.746-0.148-1.36-0.306-1.841-0.473v-18.608l1.617-0.299V138.009z M191.023,148.582c0.249,0.083,0.618,0.162,1.107,0.236
			c0.489,0.074,1.132,0.112,1.928,0.112c1.393,0,2.513-0.452,3.358-1.355c0.846-0.904,1.27-2.202,1.27-3.894
			c0-0.714-0.076-1.39-0.224-2.029c-0.15-0.637-0.39-1.193-0.721-1.666c-0.333-0.472-0.768-0.85-1.307-1.132
			c-0.539-0.282-1.207-0.423-2.003-0.423c-0.381,0-0.745,0.037-1.094,0.111c-0.348,0.075-0.672,0.171-0.97,0.286
			c-0.298,0.117-0.56,0.241-0.783,0.374c-0.224,0.133-0.411,0.258-0.561,0.374V148.582z"/>
		<path fill="#FFFFFF" d="M206.866,150.373c-0.54-1.014-1.064-2.068-1.571-3.162c-0.508-1.094-0.982-2.201-1.424-3.318
			c-0.441-1.12-0.845-2.24-1.211-3.357c-0.367-1.119-0.681-2.219-0.943-3.298h1.716c0.182,0.797,0.414,1.655,0.695,2.575
			c0.282,0.921,0.601,1.87,0.957,2.85c0.356,0.979,0.75,1.982,1.181,3.011c0.43,1.028,0.899,2.04,1.409,3.033
			c0.37-1.023,0.697-1.992,0.982-2.903s0.549-1.818,0.792-2.722c0.244-0.904,0.479-1.828,0.704-2.772s0.457-1.968,0.693-3.071h1.618
			c-0.54,2.407-1.146,4.747-1.82,7.022c-0.674,2.274-1.409,4.354-2.207,6.238c-0.315,0.746-0.639,1.389-0.973,1.929
			c-0.333,0.539-0.704,0.981-1.111,1.33c-0.409,0.348-0.883,0.605-1.424,0.771c-0.542,0.166-1.179,0.249-1.911,0.249
			c-0.417,0-0.795-0.05-1.137-0.149s-0.554-0.174-0.637-0.225l0.324-1.343c0.067,0.05,0.253,0.12,0.562,0.211
			c0.307,0.092,0.627,0.137,0.96,0.137c0.465,0,0.885-0.049,1.26-0.148c0.374-0.099,0.71-0.27,1.009-0.51
			c0.3-0.241,0.57-0.553,0.811-0.935C206.41,151.434,206.642,150.954,206.866,150.373z"/>
		<path fill="#FFFFFF" d="M228.088,150.474c-1.111,0-2.144-0.2-3.097-0.598c-0.954-0.397-1.783-0.979-2.487-1.742
			c-0.706-0.762-1.261-1.703-1.668-2.823c-0.406-1.119-0.609-2.401-0.609-3.844s0.22-2.725,0.659-3.844s1.024-2.06,1.754-2.823
			c0.729-0.763,1.575-1.34,2.538-1.729c0.962-0.39,1.965-0.585,3.01-0.585c0.646,0,1.235,0.042,1.767,0.125
			c0.53,0.083,0.995,0.187,1.394,0.311c0.397,0.125,0.737,0.249,1.02,0.373s0.498,0.236,0.646,0.336l-0.547,1.468
			c-0.414-0.249-0.94-0.493-1.58-0.733c-0.639-0.241-1.43-0.361-2.376-0.361c-1.078,0-2.019,0.184-2.823,0.548
			s-1.48,0.879-2.028,1.543c-0.547,0.663-0.958,1.451-1.23,2.362c-0.273,0.914-0.41,1.925-0.41,3.036
			c0,1.144,0.137,2.178,0.41,3.098c0.272,0.92,0.675,1.704,1.206,2.351c0.53,0.646,1.182,1.145,1.953,1.492
			c0.771,0.349,1.654,0.522,2.65,0.522c1.094,0,2.01-0.104,2.748-0.311c0.737-0.208,1.298-0.419,1.68-0.635l0.473,1.442
			c-0.117,0.084-0.315,0.179-0.598,0.287c-0.282,0.107-0.639,0.22-1.069,0.335c-0.433,0.116-0.929,0.211-1.492,0.287
			C229.414,150.436,228.784,150.474,228.088,150.474z"/>
		<path fill="#FFFFFF" d="M239.791,136.939c0.846,0,1.562,0.12,2.151,0.36c0.589,0.241,1.066,0.572,1.431,0.994
			c0.365,0.424,0.63,0.926,0.796,1.507c0.166,0.58,0.249,1.21,0.249,1.89v8.111c-0.165,0.049-0.407,0.104-0.722,0.161
			c-0.314,0.059-0.68,0.12-1.095,0.187c-0.414,0.066-0.875,0.12-1.381,0.161c-0.506,0.042-1.023,0.062-1.554,0.062
			c-0.681,0-1.307-0.074-1.879-0.224s-1.07-0.386-1.492-0.709c-0.423-0.323-0.755-0.738-0.996-1.243
			c-0.24-0.506-0.361-1.124-0.361-1.854c0-0.697,0.133-1.294,0.398-1.791c0.266-0.498,0.64-0.909,1.121-1.232
			c0.479-0.324,1.052-0.56,1.716-0.709c0.663-0.15,1.385-0.225,2.164-0.225c0.232,0,0.477,0.014,0.734,0.037
			c0.256,0.025,0.505,0.059,0.746,0.101c0.24,0.041,0.447,0.083,0.622,0.124c0.174,0.042,0.294,0.079,0.361,0.112v-0.798
			c0-0.446-0.034-0.881-0.101-1.305c-0.066-0.423-0.211-0.804-0.436-1.144c-0.224-0.341-0.539-0.614-0.944-0.822
			c-0.407-0.207-0.941-0.311-1.605-0.311c-0.944,0-1.65,0.066-2.114,0.199c-0.465,0.133-0.805,0.24-1.021,0.323l-0.224-1.418
			c0.282-0.134,0.717-0.257,1.307-0.374C238.253,136.997,238.962,136.939,239.791,136.939z M239.94,148.931
			c0.63,0,1.181-0.021,1.654-0.062c0.473-0.041,0.874-0.096,1.207-0.162v-4.527c-0.183-0.082-0.474-0.169-0.872-0.261
			c-0.397-0.091-0.945-0.138-1.643-0.138c-0.396,0-0.812,0.029-1.243,0.088c-0.431,0.058-0.829,0.183-1.193,0.373
			c-0.365,0.19-0.664,0.452-0.896,0.783c-0.232,0.332-0.349,0.771-0.349,1.319c0,0.48,0.078,0.887,0.235,1.219
			c0.158,0.332,0.382,0.598,0.672,0.796c0.291,0.198,0.64,0.344,1.045,0.435C238.966,148.885,239.426,148.931,239.94,148.931z"/>
		<path fill="#FFFFFF" d="M248.11,137.685c0.481-0.131,1.128-0.281,1.939-0.447c0.812-0.165,1.808-0.249,2.986-0.249
			c0.979,0,1.795,0.142,2.45,0.423c0.655,0.282,1.178,0.685,1.566,1.207c0.391,0.522,0.669,1.148,0.834,1.878
			c0.166,0.73,0.249,1.534,0.249,2.413v7.19h-1.616v-6.667c0-0.912-0.062-1.685-0.188-2.313c-0.124-0.631-0.332-1.145-0.621-1.542
			c-0.29-0.398-0.672-0.685-1.145-0.859c-0.474-0.175-1.066-0.262-1.779-0.262c-0.763,0-1.422,0.042-1.979,0.125
			c-0.556,0.082-0.915,0.157-1.081,0.224V150.1h-1.617V137.685z"/>
		<path fill="#FFFFFF" d="M272.852,143.682c0,1.012-0.146,1.932-0.436,2.762c-0.29,0.829-0.696,1.534-1.219,2.113
			c-0.523,0.581-1.141,1.032-1.854,1.356c-0.713,0.323-1.501,0.484-2.363,0.484s-1.65-0.161-2.363-0.484
			c-0.713-0.324-1.331-0.775-1.854-1.356c-0.522-0.579-0.929-1.284-1.218-2.113c-0.292-0.83-0.437-1.75-0.437-2.762
			s0.145-1.934,0.437-2.762c0.289-0.829,0.695-1.538,1.218-2.128c0.522-0.588,1.141-1.044,1.854-1.368
			c0.713-0.323,1.501-0.484,2.363-0.484s1.65,0.161,2.363,0.484c0.714,0.324,1.331,0.78,1.854,1.368
			c0.522,0.59,0.929,1.299,1.219,2.128C272.706,141.748,272.852,142.67,272.852,143.682z M271.135,143.682
			c0-1.61-0.373-2.891-1.119-3.844c-0.747-0.954-1.759-1.432-3.036-1.432c-1.276,0-2.289,0.478-3.035,1.432
			c-0.746,0.953-1.119,2.233-1.119,3.844c0,1.609,0.373,2.886,1.119,3.831c0.746,0.944,1.759,1.418,3.035,1.418
			c1.277,0,2.289-0.474,3.036-1.418C270.762,146.567,271.135,145.291,271.135,143.682z"/>
		<path fill="#FFFFFF" d="M275.961,137.685c0.481-0.131,1.127-0.281,1.94-0.447c0.812-0.165,1.807-0.249,2.985-0.249
			c0.979,0,1.795,0.142,2.45,0.423c0.655,0.282,1.178,0.685,1.567,1.207s0.669,1.148,0.834,1.878
			c0.165,0.73,0.248,1.534,0.248,2.413v7.19h-1.617v-6.667c0-0.912-0.062-1.685-0.187-2.313c-0.124-0.631-0.332-1.145-0.622-1.542
			c-0.289-0.398-0.671-0.685-1.145-0.859c-0.473-0.175-1.065-0.262-1.778-0.262c-0.763,0-1.422,0.042-1.978,0.125
			c-0.556,0.082-0.917,0.157-1.082,0.224V150.1h-1.617V137.685z"/>
		<path fill="#FFFFFF" d="M291.604,133.356c0,0.382-0.116,0.685-0.349,0.908s-0.514,0.335-0.846,0.335s-0.613-0.111-0.846-0.335
			s-0.349-0.526-0.349-0.908s0.116-0.684,0.349-0.908c0.232-0.223,0.514-0.336,0.846-0.336s0.613,0.113,0.846,0.336
			C291.488,132.673,291.604,132.975,291.604,133.356z M291.231,150.1h-1.617v-12.862h1.617V150.1z"/>
		<path fill="#FFFFFF" d="M300.363,150.373c-0.994,0-1.875-0.157-2.637-0.472c-0.764-0.315-1.397-0.768-1.903-1.357
			c-0.506-0.587-0.892-1.292-1.156-2.113c-0.266-0.822-0.398-1.729-0.398-2.725c0-1.012,0.137-1.933,0.411-2.762
			c0.273-0.829,0.667-1.542,1.181-2.14c0.515-0.597,1.136-1.057,1.866-1.381c0.729-0.323,1.551-0.484,2.463-0.484
			c0.696,0,1.349,0.058,1.952,0.173c0.606,0.117,1.075,0.267,1.406,0.448l-0.423,1.393c-0.332-0.165-0.705-0.298-1.119-0.397
			c-0.415-0.1-0.97-0.149-1.667-0.149c-1.427,0-2.508,0.461-3.246,1.382s-1.107,2.226-1.107,3.918c0,0.764,0.083,1.464,0.249,2.103
			s0.435,1.187,0.808,1.642c0.374,0.457,0.854,0.813,1.443,1.07c0.588,0.256,1.307,0.385,2.151,0.385
			c0.697,0,1.282-0.078,1.755-0.236c0.473-0.157,0.816-0.294,1.032-0.41l0.348,1.394c-0.298,0.166-0.767,0.327-1.405,0.484
			C301.729,150.294,301.062,150.373,300.363,150.373z"/>
		<path fill="#FFFFFF" d="M310.285,136.939c0.847,0,1.563,0.12,2.152,0.36c0.589,0.241,1.065,0.572,1.431,0.994
			c0.365,0.424,0.63,0.926,0.797,1.507c0.165,0.58,0.248,1.21,0.248,1.89v8.111c-0.166,0.049-0.406,0.104-0.722,0.161
			c-0.315,0.059-0.681,0.12-1.095,0.187s-0.875,0.12-1.38,0.161c-0.508,0.042-1.025,0.062-1.556,0.062
			c-0.681,0-1.306-0.074-1.878-0.224s-1.071-0.386-1.494-0.709c-0.422-0.323-0.754-0.738-0.994-1.243
			c-0.24-0.506-0.361-1.124-0.361-1.854c0-0.697,0.133-1.294,0.398-1.791c0.266-0.498,0.639-0.909,1.119-1.232
			c0.48-0.324,1.054-0.56,1.717-0.709c0.664-0.15,1.385-0.225,2.164-0.225c0.233,0,0.478,0.014,0.734,0.037
			c0.258,0.025,0.506,0.059,0.746,0.101c0.241,0.041,0.448,0.083,0.623,0.124c0.174,0.042,0.293,0.079,0.36,0.112v-0.798
			c0-0.446-0.034-0.881-0.1-1.305c-0.066-0.423-0.211-0.804-0.436-1.144c-0.224-0.341-0.539-0.614-0.945-0.822
			c-0.406-0.207-0.941-0.311-1.605-0.311c-0.944,0-1.65,0.066-2.114,0.199c-0.465,0.133-0.805,0.24-1.02,0.323l-0.225-1.418
			c0.282-0.134,0.717-0.257,1.308-0.374C308.747,136.997,309.456,136.939,310.285,136.939z M310.435,148.931
			c0.631,0,1.183-0.021,1.654-0.062c0.473-0.041,0.876-0.096,1.207-0.162v-4.527c-0.183-0.082-0.473-0.169-0.871-0.261
			c-0.397-0.091-0.944-0.138-1.642-0.138c-0.398,0-0.813,0.029-1.244,0.088c-0.432,0.058-0.83,0.183-1.193,0.373
			c-0.365,0.19-0.665,0.452-0.896,0.783c-0.233,0.332-0.35,0.771-0.35,1.319c0,0.48,0.08,0.887,0.237,1.219s0.381,0.598,0.672,0.796
			s0.639,0.344,1.045,0.435C309.46,148.885,309.92,148.931,310.435,148.931z"/>
		<path fill="#FFFFFF" d="M321.834,150.323c-0.547-0.017-1.024-0.087-1.431-0.211c-0.406-0.125-0.746-0.314-1.021-0.572
			c-0.273-0.257-0.481-0.589-0.621-0.996c-0.141-0.405-0.212-0.916-0.212-1.529v-15.922l1.616-0.299v16.171
			c0,0.398,0.038,0.719,0.113,0.958c0.074,0.241,0.187,0.432,0.336,0.572s0.344,0.245,0.584,0.311
			c0.241,0.067,0.526,0.125,0.858,0.176L321.834,150.323z"/>
	</g>
</g>
</svg>
